<?xml version="1.0" encoding="UTF-8" standalone="no"?>
<svg
   version="1.1"
   width="11.879328in"
   height="11.79423in"
   viewBox="0 0 855.31222 849.18667"
   id="svg1"
   xml:space="preserve"
   sodipodi:docname="musit-studio-bird-fav.svg"
   inkscape:version="1.4.2 (f4327f4, 2025-05-13)"
   xmlns:inkscape="http://www.inkscape.org/namespaces/inkscape"
   xmlns:sodipodi="http://sodipodi.sourceforge.net/DTD/sodipodi-0.dtd"
   xmlns="http://www.w3.org/2000/svg"
   xmlns:svg="http://www.w3.org/2000/svg"><sodipodi:namedview
     id="namedview1"
     pagecolor="#505050"
     bordercolor="#eeeeee"
     borderopacity="1"
     inkscape:showpageshadow="0"
     inkscape:pageopacity="0"
     inkscape:pagecheckerboard="0"
     inkscape:deskcolor="#505050"
     inkscape:document-units="in"
     inkscape:zoom="0.63203385"
     inkscape:cx="507.88419"
     inkscape:cy="512.63077"
     inkscape:window-width="1920"
     inkscape:window-height="1010"
     inkscape:window-x="-6"
     inkscape:window-y="-6"
     inkscape:window-maximized="1"
     inkscape:current-layer="svg1" /><defs
     id="defs1" /><g
     id="g23"
     transform="translate(-115.00366,-58.405146)"
     inkscape:export-filename="musit-studio-bird-fav.png"
     inkscape:export-xdpi="4.0406322"
     inkscape:export-ydpi="4.0406322"><path
       style="fill:#af2a2d;fill-opacity:1;stroke-width:2.24386"
       d="m 926.33678,1076.0471 c -91.4528,-63.7863 -108.07465,-76.53568 -124.29769,-95.33942 -19.40154,-22.48788 -41.53205,-57.5539 -60.4453,-95.77628 -18.78061,-37.95431 -25.80604,-62.2607 -25.81207,-89.30384 -0.004,-20.1625 5.5691,-58.98256 9.00274,-62.70415 1.46869,-1.59186 25.86116,6.66116 72.45442,24.51444 8.33885,3.19522 9.05218,3.07969 20.34867,-3.29566 6.43879,-3.63382 35.81892,-22.47168 65.28919,-41.86191 57.0988,-37.56866 99.72171,-64.46315 100.31238,-63.29578 0.19816,0.39158 3.63832,7.55905 7.64484,15.92771 6.74625,14.09121 76.33844,131.71572 136.57624,230.84067 18.6499,30.68942 25.3034,43.51082 24.4144,47.04698 -1.8502,7.35967 -40.8374,54.02459 -62.2194,74.47224 -20.6348,19.7332 -46.5381,40.9041 -67.289,54.9958 -22.98499,15.6088 -49.49234,31.0959 -53.2229,31.0959 -1.9753,0 -21.21575,-12.2925 -42.75652,-27.3167 z"
       id="path17"
       transform="matrix(0.75000186,0,0,0.75000186,-9.6740963e-4,0)" /><path
       style="fill:#891e22;fill-opacity:1;stroke-width:0.396662"
       d="m 927.99686,1123.2032 c -2.50539,-0.9195 -4.5681,-2.555 -10.57344,-8.3834 -3.1584,-3.0654 -12.51481,-11.7923 -20.79202,-19.3931 -27.21755,-24.9934 -39.74247,-36.9246 -60.04278,-57.1965 -19.90271,-19.875 -29.48326,-29.9673 -41.6912,-43.91849 -18.00586,-20.57695 -33.38336,-41.22562 -43.1033,-57.87843 -9.95066,-17.04809 -18.32234,-34.49115 -24.26744,-50.5631 -1.43644,-3.88329 -3.40694,-9.14708 -4.37888,-11.69732 -2.0193,-5.29838 -3.04697,-9.32443 -2.87338,-11.25688 0.10002,-1.11338 1.49327,1.61947 8.43661,16.54821 7.52326,16.17563 9.15856,19.33652 17.13876,33.12782 21.30399,36.81734 34.56879,56.54021 49.70647,73.90647 6.61207,7.5855 19.72785,20.31352 26.8179,26.02512 4.85627,3.9121 53.81671,38.9584 75.64337,54.1463 13.61383,9.473 28.85142,20.1003 33.8613,23.6163 5.00989,3.516 11.69304,8.0962 14.85145,10.1782 3.15841,2.082 6.68968,4.7211 7.84727,5.8646 2.05529,2.0303 4.30621,5.0258 3.99284,5.3136 -0.23844,0.219 -20.41359,9.5067 -23.12721,10.6467 -3.13143,1.3155 -5.54494,1.6117 -7.44632,0.9139 z"
       id="path18"
       transform="matrix(0.75000186,0,0,0.75000186,-9.6740963e-4,0)" /><path
       style="fill:#cb2d32;fill-opacity:1;stroke-width:2.24386"
       d="m 673.21996,1162.3433 c -3.08045,-0.4946 -18.70678,-2.9153 -34.72515,-5.3792 -48.0726,-7.3947 -48.74311,-7.696 -73.04363,-32.8273 -69.97643,-72.3689 -105.06795,-150.79401 -111.74454,-249.73499 -2.59939,-38.52066 0.97832,-77.78706 11.47404,-125.93084 10.26739,-47.0965 9.83258,-46.56413 18.75129,-22.95853 4.11608,10.89422 7.94682,20.27071 8.51277,20.83666 0.56595,0.56596 26.09762,-10.03075 56.73704,-23.54822 62.6045,-27.61983 68.22595,-29.48144 94.83674,-31.40647 17.31333,-1.25243 19.21492,-1.85992 21.82605,-6.97278 1.57318,-3.08046 11.47921,-29.27089 22.01339,-58.20096 10.53418,-28.93008 20.88434,-55.5645 23.00035,-59.18764 3.21524,-5.50521 10.44744,-9.29218 44.02032,-23.05017 40.97067,-16.78955 48.28063,-20.95518 48.28063,-27.51315 0,-4.41489 -12.23005,-41.48273 -16.18361,-49.05059 -1.52026,-2.91008 -5.30589,-6.30808 -8.41251,-7.5511 -3.1066,-1.24303 -29.33989,-11.26854 -58.29619,-22.27892 -28.9563,-11.01038 -57.18449,-22.66428 -62.72932,-25.89755 -11.49392,-6.70229 -33.60499,-28.39084 -33.60499,-32.96283 0,-5.76743 87.19095,-39.27823 148.54481,-57.09142 51.4891,-14.9491 128.87395,-32.84105 205.05698,-47.41071 19.30277,-3.69156 36.97947,-7.27565 39.28157,-7.96465 8.3492,-2.49882 1.9895,4.08813 -33.30996,34.50004 -23.12638,19.92432 -36.09936,32.65753 -36.56123,35.88549 -0.81978,5.72919 -0.0712,5.89501 23.11923,5.12155 19.10849,-0.63731 20.15058,-1.98194 -22.35767,28.84901 -17.22545,12.4935 -32.20012,24.28995 -33.27707,26.21432 -2.99905,5.35903 0.9251,7.67538 18.76005,11.07367 8.93042,1.70162 16.60358,3.46029 17.05144,3.90815 0.44787,0.44787 -9.30677,7.14955 -21.67694,14.89264 -12.37018,7.74308 -23.47976,15.92544 -24.68797,18.183 -2.7452,5.12944 -7.73988,-7.88174 58.74806,153.03902 15.1244,36.60563 15.50247,37.97714 11.53843,41.85753 -7.19062,7.03885 -165.23318,109.60491 -168.88864,109.60491 -1.93088,0 -20.25805,-6.55297 -40.72708,-14.56216 -20.46904,-8.00919 -39.27426,-14.56216 -41.78942,-14.56216 -6.32967,0 -7.99238,4.09318 -13.65092,33.60499 -10.22968,53.3522 -8.53648,80.33244 8.04599,128.20899 21.83263,63.03474 59.11739,111.75136 153.40844,200.44497 25.78849,24.2576 46.09796,44.8949 45.13215,45.8607 -0.96578,0.9658 -14.11004,5.8127 -29.20943,10.7709 -30.00599,9.8531 -70.86114,18.7787 -102.36703,22.364 -19.05728,2.1687 -98.82647,2.7598 -110.89647,0.8218 z"
       id="path19"
       transform="matrix(0.75000186,0,0,0.75000186,-9.6740963e-4,0)" /><path
       style="fill:#ec6440;fill-opacity:1;stroke-width:2.24386"
       d="m 486.86689,479.71758 c -34.10803,-5.08625 -62.59278,-9.84033 -63.29944,-10.56463 -1.84202,-1.888 148.12807,-52.03382 150.7571,-50.40899 2.55074,1.57644 34.59166,61.88827 33.47281,63.00713 -1.51426,1.51426 -44.51907,7.75359 -51.61066,7.48791 -4.01786,-0.15053 -35.21177,-4.43516 -69.31981,-9.52142 z"
       id="path20"
       transform="matrix(0.75000186,0,0,0.75000186,-9.6740963e-4,0)" /><path
       style="fill:#da352a;fill-opacity:1;stroke-width:1.58665"
       d="m 566.81234,589.42428 c -3.65835,-2.09187 -11.49991,-7.22766 -17.42569,-11.41286 -29.35358,-20.73159 -127.70425,-95.6697 -126.77669,-96.59726 0.81827,-0.81827 125.35918,16.50141 132.8405,18.47388 5.43265,1.43234 18.62808,10.16055 45.76396,30.27091 16.62958,12.32415 16.63905,12.33977 11.80665,19.4607 -6.85403,10.1 -35.90476,43.64722 -37.77954,43.6271 -0.9777,-0.0105 -4.77083,-1.73061 -8.42919,-3.82247 z"
       id="path21"
       transform="matrix(0.75000186,0,0,0.75000186,-9.6740963e-4,0)" /><path
       style="fill:#da352a;fill-opacity:1;stroke-width:1.58665"
       d="m 598.37915,516.58778 -24.19353,-18.01445 18.23936,-3.44858 c 10.03165,-1.89672 18.97191,-2.99585 19.86723,-2.44251 4.62074,2.85577 16.61152,34.90867 14.81272,39.59627 -0.50096,1.30548 -1.72565,2.36238 -2.72154,2.34866 -0.99589,-0.0137 -12.69779,-8.13145 -26.00424,-18.03939 z"
       id="path22"
       transform="matrix(0.75000186,0,0,0.75000186,-9.6740963e-4,0)" /><path
       style="fill:#ffffff;fill-opacity:1;stroke-width:0.280483"
       d="m 714.2132,529.68563 c -16.9943,-1.51391 -29.73208,-12.91771 -33.4715,-29.96615 -0.40927,-1.8659 -0.51673,-3.5192 -0.50873,-7.82644 0.009,-4.90865 0.0852,-5.77866 0.75228,-8.60427 1.78665,-7.56769 5.53365,-14.36676 10.85084,-19.68922 4.77184,-4.77659 9.45253,-7.19095 17.34114,-8.94477 9.2145,-2.0486 15.86774,-2.00281 22.74944,0.15654 14.40065,4.51867 24.79073,18.13968 25.97637,34.05405 0.71704,9.62447 -1.85088,18.68885 -7.37053,26.0169 -4.74082,6.29405 -12.49832,11.68921 -19.87285,13.8211 -3.9556,1.14351 -10.34953,1.52539 -16.44646,0.98226 z m 12.49471,-15.10702 c 6.31525,-2.01692 11.38028,-6.42424 14.26936,-12.41644 1.6994,-3.5247 2.13205,-5.32105 2.31018,-9.59182 0.11719,-2.80978 0.0428,-4.21265 -0.31943,-6.0209 -1.1522,-5.75237 -4.60041,-11.29689 -8.93921,-14.37371 -3.57457,-2.53488 -6.97242,-3.82312 -11.51414,-4.36539 -4.27967,-0.51099 -8.12818,0.0543 -12.74325,1.87194 -7.91099,3.11565 -13.27709,9.62033 -14.31066,17.34706 -0.44787,3.34819 -0.17738,9.11487 0.56309,12.00475 2.19135,8.55228 8.40986,14.27206 17.3565,15.96447 3.32481,0.62894 10.77872,0.39406 13.32756,-0.41996 z"
       id="path23"
       transform="matrix(0.75000186,0,0,0.75000186,-9.6740963e-4,0)" /><path
       style="fill:#ffffff;fill-opacity:1;stroke-width:1.58665"
       d="M 550.49366,1136.0591 C 402.11637,1083.8817 283.90795,967.72031 231.48925,822.57905 212.86348,771.00646 203.9992,726.96196 200.25141,667.36562 c -2.92125,-46.45286 2.6171,-105.0676 14.29445,-151.28415 17.59592,-69.64108 52.1417,-139.16169 97.44658,-196.10344 15.97361,-20.07655 62.0107,-66.19173 81.66993,-81.80846 59.72815,-47.44636 125.81535,-80.41227 198.0193,-98.77689 39.05697,-9.93389 92.60745,-16.60496 133.37505,-16.61524 27.45778,-0.007 76.07169,5.0726 105.83227,11.05811 142.37339,28.63442 270.21631,118.57209 343.35451,241.55035 51.225,86.13246 74.7992,169.98218 74.8404,266.19664 0.036,85.03368 -18.5513,163.6636 -55.5847,235.13345 -12.564,24.24691 -31.1743,55.59193 -32.9655,55.52297 -0.513,-0.0197 -8.8448,-13.38604 -18.5153,-29.7029 -9.6704,-16.31683 -38.9559,-65.66689 -65.0789,-109.66678 -26.123,-43.99989 -54.0944,-91.21024 -62.1587,-104.91189 -11.8792,-20.18339 -18.7967,-34.9176 -36.44314,-77.62357 -49.36992,-119.47974 -65.41309,-159.63806 -64.61056,-161.72941 0.46546,-1.21295 11.06673,-8.44532 23.55837,-16.07191 42.13865,-25.72713 42.60262,-27.20117 10.11345,-32.13121 l -18.69622,-2.83707 6.29093,-5.51526 c 3.46001,-3.0334 20.03881,-15.48544 36.84176,-27.6712 31.54961,-22.88023 36.41961,-27.89034 30.97801,-31.86931 -2.3479,-1.71683 -6.89297,-1.97075 -20.92736,-1.16918 -11.53182,0.65862 -17.92808,0.4611 -17.92808,-0.55367 0,-0.86769 3.74256,-4.70145 8.31681,-8.5195 25.82368,-21.55456 67.97203,-59.1788 69.50633,-62.04563 2.4193,-4.52041 -1.8714,-7.7263 -8.7116,-6.50917 -14.6521,2.60716 -162.91949,32.5922 -178.41819,36.08261 -66.53943,14.9852 -148.04706,40.99711 -209.46395,66.8472 -29.81996,12.5511 -30.62031,13.03575 -48.06641,29.1067 -8.65495,7.97273 -18.23132,16.18401 -21.28082,18.24727 -3.0495,2.06327 -29.7821,11.92935 -59.40579,21.92464 -111.11384,37.49078 -119.60366,40.77713 -119.60366,46.29776 0,2.4934 2.27789,4.3134 60.19787,48.09759 46.52034,35.16671 58.63993,45.16317 58.58472,48.32183 -0.0159,0.91228 -2.58334,7.71808 -5.70535,15.124 -31.76266,75.3466 -54.20219,148.18814 -63.19775,205.148 -4.00323,25.34846 -4.87048,79.66388 -1.68204,105.34627 5.03882,40.587 12.29753,70.4303 24.56881,101.01172 20.76258,51.74261 45.04694,89.39931 84.77894,131.46291 7.61266,8.0594 13.23954,14.6463 12.50421,14.6375 -0.73533,-0.01 -8.10922,-2.3975 -16.38643,-5.3082 z"
       id="path24"
       transform="matrix(0.75000186,0,0,0.75000186,-9.6740963e-4,0)" /><path
       style="display:none;fill:#ffffff;fill-opacity:1;stroke-width:1.58665"
       d="M 0.79207721,639.99838 V 0.79207721 H 725.54272 1450.2934 V 639.99838 1279.2047 H 725.54272 0.79207721 Z M 803.78709,1205.4823 c 75.5848,-10.9921 132.08741,-29.7458 198.98261,-66.0442 103.9277,-56.3928 196.7208,-157.76034 244.0208,-266.56902 22.8456,-52.55386 40.6337,-120.16478 45.1989,-171.79606 2.9179,-33.0015 1.1064,-114.17549 -3.166,-141.86651 -13.5167,-87.60799 -42.1137,-160.38105 -92.1318,-234.45486 -24.6089,-36.44431 -45.5262,-60.34368 -87.7835,-100.29851 C 1046.1092,165.076 956.80576,117.2016 866.28686,94.387068 818.73708,82.402548 783.44664,78.432595 724.75064,78.465137 660.99153,78.500486 635.47972,81.347229 582.67168,94.319061 504.9492,113.4109 440.96882,144.41227 372.27629,196.26506 c -22.82119,17.22666 -78.48386,71.96495 -96.82734,95.21935 -66.11414,83.81425 -106.5734,181.40803 -118.54151,285.93987 -3.76295,32.86642 -3.36808,103.63491 0.75762,135.78065 17.04224,132.78564 72.425,244.12746 167.28678,336.31417 67.8321,65.9193 141.40952,109.251 232.67051,137.0261 36.73859,11.1812 81.76094,20.112 110.09873,21.8395 4.79207,0.2921 31.16824,0.6601 58.61372,0.8177 45.95157,0.2639 52.08136,-0.03 77.45229,-3.7201 z"
       id="path25"
       transform="matrix(0.75000186,0,0,0.75000186,-9.6740963e-4,0)" /><path
       id="path1"
       style="fill:#000000;fill-opacity:1;stroke-width:1.18852"
       d="m 539.0549,58.42184 c -14.45692,0.101434 -28.91924,0.339978 -43.35494,1.164323 -5.11047,0.301369 -10.22081,0.712691 -15.27628,1.541164 -16.36846,2.478542 -32.56037,6.030066 -48.57807,10.192838 -14.60985,3.840569 -29.09968,8.19305 -43.26393,13.457471 -15.66428,5.902799 -30.83824,13.048239 -45.63212,20.866584 -17.89519,9.51028 -35.25415,20.05352 -51.78916,31.77633 -6.04371,4.3163 -12.00987,8.75176 -17.72479,13.49748 -7.19161,6.12628 -14.04749,12.63181 -20.88474,19.14598 -11.33978,10.90595 -22.52732,21.97562 -33.35419,33.39237 -4.06617,4.29954 -8.06211,8.67153 -11.77328,13.28441 -20.2395,24.77806 -37.27791,52.11489 -51.12165,80.94225 -13.94428,29.06845 -24.67071,59.68966 -31.78835,91.1375 -4.47365,19.81497 -7.51999,39.96473 -8.86912,60.23724 -0.67473,11.8488 -0.70394,23.72416 -0.5912,35.58856 0.17997,13.98221 0.60205,27.96818 1.64318,41.91467 0.38373,5.29094 0.99999,10.56216 1.79323,15.80687 5.23009,36.22574 14.6997,71.89065 28.79828,105.68875 11.78446,28.32613 26.81448,55.29588 44.67495,80.23933 18.68184,26.09407 40.40983,49.95793 64.2448,71.42658 19.99104,17.95145 41.49829,34.27494 64.54198,48.11757 8.05489,4.82221 16.38484,9.1669 24.74617,13.42908 10.3158,5.21139 20.72038,10.26303 31.34163,14.82537 6.39256,2.685 12.90685,5.07151 19.44165,7.38481 19.15543,6.69745 38.71527,12.24663 58.54032,16.57894 14.03413,3.02671 28.21657,5.49654 42.53469,6.67247 6.73601,0.53513 13.49776,0.591 20.25087,0.71115 16.42921,0.22658 32.86269,0.20175 49.29059,-0.11272 14.66823,-0.3057 29.36705,-1.01423 43.87839,-3.28846 11.60313,-1.78793 23.07217,-4.34094 34.49064,-7.04597 27.87784,-6.79006 55.0366,-16.47356 81.04584,-28.57604 20.93746,-9.76225 41.1298,-21.16003 60.10357,-34.35009 37.02122,-25.58016 70.12495,-56.85989 97.54824,-92.54968 25.79294,-33.52469 46.54392,-70.93293 61.19843,-110.61947 5.58729,-15.10627 10.26947,-30.54252 14.09148,-46.18739 4.01221,-16.15157 7.91252,-32.41074 9.51888,-49.01144 1.39583,-14.01754 1.49498,-28.12083 1.54553,-42.19543 -0.004,-14.25306 -0.0125,-28.51035 -0.47716,-42.75699 -0.38415,-11.79403 -1.25047,-23.58742 -3.10238,-35.24835 -1.62173,-10.22781 -3.68003,-20.38378 -5.98216,-30.47922 -4.41001,-19.23981 -10.14678,-38.18255 -17.3375,-56.56741 -4.08203,-10.425 -8.55152,-20.70052 -13.44423,-30.77103 -6.70292,-13.57702 -14.30568,-26.69343 -22.31405,-39.53845 -8.01595,-12.77468 -16.4573,-25.30028 -25.65704,-37.25729 -5.80944,-7.63307 -12.33768,-14.67823 -18.89862,-21.66227 C 852.1108,187.62256 840.78044,176.33732 829.12249,165.4052 822.4423,159.17322 815.66798,153.02044 808.40736,147.4647 782.02192,126.92691 753.12435,109.66714 722.71481,95.7901 692.20489,81.891208 660.12714,71.370978 627.2236,64.884316 616.20022,62.721898 605.08819,60.987385 593.91559,59.812912 584.96535,59.033009 575.97834,58.804731 566.99971,58.603119 557.68607,58.419968 548.37009,58.376263 539.0549,58.42184 Z m 3.24756,35.200283 c 13.81223,-1.35e-4 27.55517,0.632101 41.26748,1.962994 13.66791,1.325149 27.32227,3.345001 40.82285,6.094093 8.94874,1.81837 17.89947,3.9682 26.74104,6.43869 6.44942,1.79762 12.87773,3.77878 19.2461,5.92127 14.7299,4.96372 29.30139,10.88752 43.37395,17.63221 27.90836,13.36108 54.21323,30.04997 78.25379,49.52517 3.63781,2.95207 7.32175,6.04572 10.88838,9.1571 10.56475,9.20813 20.7317,19.06322 30.27975,29.38854 5.28024,5.70106 10.46245,11.66043 15.41861,17.70795 0.92378,1.14992 1.95691,2.4045 2.87604,3.56222 11.2558,14.08229 21.47457,28.98679 30.62017,44.52136 10.37778,17.5753 19.43383,35.93628 26.96272,54.90933 3.95108,9.95452 7.51427,20.16164 10.62513,30.44694 0.87082,2.90111 1.74765,5.89751 2.54738,8.80511 1.35728,4.89494 2.63123,9.8948 3.79336,14.83987 2.13135,9.08283 3.92611,18.19265 5.42063,27.39164 0.96301,6.02758 1.83931,12.10168 2.52151,18.21686 0.43823,4.58724 0.642,9.04975 0.82208,13.64654 0.48675,13.93051 0.54247,27.94318 0.33232,41.90856 -0.10305,6.39603 -0.27585,12.81122 -0.5931,19.15506 -0.16882,3.08383 -0.35317,6.17596 -0.68827,9.27967 -1.41706,12.12864 -3.31284,24.20771 -5.73122,36.214 -2.71771,13.47146 -6.14296,26.8897 -10.32902,40.0449 -1.40573,4.41186 -2.91054,8.86114 -4.48142,13.19469 -2.26388,6.27798 -4.75546,12.59136 -7.37176,18.73738 -4.82717,11.34542 -10.27735,22.418 -16.15902,33.25213 -4.58941,8.46594 -9.3055,16.9188 -14.38263,25.12974 -1.55018,2.4682 -3.09939,4.95187 -4.99202,7.17725 -4.24156,-6.65683 -8.33274,-13.35173 -12.40375,-20.12254 -17.61342,-29.31986 -34.99456,-58.77833 -52.35583,-88.24757 -15.11884,-25.72252 -30.23543,-51.44729 -45.13331,-77.29875 -2.35329,-4.1096 -4.71909,-8.21119 -6.9667,-12.34317 -0.41055,-0.75646 -0.71077,-1.38184 -1.09447,-2.16421 -6.24258,-12.68609 -11.69247,-25.68192 -17.17793,-38.70076 -8.83813,-21.15681 -17.55146,-42.37947 -26.21647,-63.59756 -5.84972,-14.39961 -11.72427,-28.7918 -17.22592,-43.32893 -1.63498,-4.45679 -3.34926,-8.89941 -4.55865,-13.49559 -0.14961,-0.64256 -0.30225,-1.29035 -0.33474,-1.95133 1.88536,-1.62266 3.897,-2.96311 5.91392,-4.39594 5.1476,-3.56388 10.34443,-6.93688 15.60002,-10.30802 5.59361,-3.65755 11.18224,-7.34106 16.48112,-11.42026 1.10036,-0.87823 2.25786,-1.76387 2.9108,-3.04675 0.6385,-0.96764 1.01081,-2.35877 0.2168,-3.34718 -0.83525,-1.02919 -2.19079,-1.40841 -3.39939,-1.8182 -4.38276,-1.14371 -8.85451,-1.90783 -13.31205,-2.69631 -4.03119,-0.69512 -8.10075,-1.29134 -12.02154,-2.48892 1.97676,-1.70739 3.97245,-3.25447 6.01027,-4.8882 1.43835,-1.12618 2.97594,-2.34042 4.43689,-3.46535 10.72537,-8.34522 21.7545,-16.29279 32.44359,-24.68454 3.24675,-2.61913 6.56949,-5.18935 9.4052,-8.26422 1.09875,-1.27441 2.34293,-2.80165 2.10765,-4.59619 -0.22305,-1.53153 -1.71713,-2.42546 -3.1032,-2.76373 -2.85542,-0.69666 -5.82243,-0.65303 -8.74242,-0.72948 -4.3148,-0.0415 -8.64363,0.0226 -12.91826,-0.20656 -1.25152,-0.0678 -2.50333,-0.14944 -3.74855,-0.29297 4.43551,-4.68176 9.41704,-8.79484 14.19564,-13.11341 13.05379,-11.60385 26.12707,-23.19432 39.20246,-34.77886 1.58625,-1.52473 3.18023,-3.35886 3.40575,-5.63912 0.15383,-1.55451 -0.8466,-3.0726 -2.29395,-3.62288 -1.51036,-0.6392 -3.20618,-0.60206 -4.78584,-0.26753 -9.61277,1.67772 -19.18152,3.5971 -28.76189,5.4497 -30.26968,5.95029 -60.51891,12.01281 -90.72498,18.27795 -9.90387,2.06589 -19.81052,4.13026 -29.62647,6.58761 -22.08269,5.44577 -43.92346,11.83919 -65.57757,18.7867 -23.74723,7.65562 -47.28634,15.9867 -70.42005,25.34306 -6.72756,2.76995 -13.49183,5.46902 -20.06188,8.60078 -4.86512,2.31767 -9.4774,5.16331 -13.69421,8.52088 -6.17451,4.87656 -11.90274,10.27998 -17.88408,15.38449 -3.22225,2.75677 -6.80647,5.08066 -10.64492,6.8837 -6.59037,3.10849 -13.48872,5.49194 -20.33951,7.94927 -15.544,5.44522 -31.15651,10.69229 -46.72985,16.05256 -14.35072,4.95086 -28.72398,9.84468 -42.9592,15.12114 -5.2338,2.00094 -10.51494,3.93367 -15.51038,6.4896 -1.65954,0.92696 -3.48757,1.86374 -4.48267,3.55861 -0.7687,1.28731 -0.31112,2.96426 0.72868,3.95704 2.60477,2.29142 5.38642,4.37345 8.10322,6.52921 16.3174,12.73366 32.92913,25.08384 49.29159,37.76012 7.43965,5.77595 14.85343,11.51016 22.0665,17.57246 2.43975,2.10968 4.9536,4.17095 7.05901,6.62629 0.2647,0.37666 0.75033,0.76511 0.46041,1.26221 -1.23762,4.15168 -2.81145,8.19432 -4.30894,12.25705 -3.74615,9.9463 -7.80994,19.76389 -11.51064,29.72832 -8.80881,23.50355 -16.73216,47.34658 -23.49761,71.51963 -4.22786,15.17735 -8.02847,30.48729 -10.8944,45.98454 -1.89956,10.55233 -2.18171,21.30036 -2.49698,31.99123 -0.24501,10.36678 -0.45347,20.73566 -0.47586,31.1056 -0.0198,7.80734 0.25099,15.62887 1.26239,23.37697 1.55856,12.09795 3.53858,24.15231 6.26081,36.0464 3.02036,13.23407 7.12548,26.21632 12.23546,38.7918 4.27848,10.53591 9.13347,20.83276 14.34609,30.93686 8.4866,16.29266 18.94181,31.49693 30.46968,45.77779 6.72894,8.37579 13.84652,16.42939 21.08928,24.36223 1.81258,2.03183 3.62145,4.06801 5.3611,6.16307 -5.05526,-1.60928 -10.05547,-3.38949 -15.04666,-5.18664 -7.30715,-2.67061 -14.38434,-5.50524 -21.5071,-8.61092 -11.29101,-4.92384 -22.39287,-10.40838 -33.20347,-16.40659 -17.53523,-9.71695 -34.38861,-20.81323 -50.28763,-33.07388 -24.26882,-18.7157 -46.4683,-40.2466 -65.81777,-64.05444 -4.81349,-5.91682 -9.50483,-12.05116 -13.95032,-18.2464 -7.76538,-10.80935 -14.95505,-22.03312 -21.5167,-33.613 -2.99315,-5.29222 -5.89079,-10.73068 -8.63263,-16.19205 -9.03248,-17.92323 -16.85522,-36.56764 -23.10567,-55.68095 -2.88021,-8.79341 -5.47958,-17.84596 -7.68901,-26.82723 -1.11092,-4.48831 -2.15742,-9.12138 -3.09628,-13.64479 -0.95226,-4.59869 -1.80688,-9.15968 -2.59469,-13.8043 -1.29233,-7.6776 -2.36241,-15.46189 -3.1977,-23.23901 -0.99002,-9.21694 -1.6531,-18.41341 -2.02886,-27.68778 -0.43587,-10.90744 -0.47194,-21.9611 -0.12355,-32.87021 0.20821,-6.23547 0.53633,-12.39846 1.02432,-18.62244 1.31236,-16.96217 3.77187,-33.9273 7.47619,-50.57256 4.01395,-18.031 9.53384,-35.83661 16.33027,-53.05848 6.82869,-17.32288 14.91793,-34.19868 23.91637,-50.53185 5.15975,-9.35225 10.68134,-18.46931 16.63144,-27.32023 10.19683,-15.19671 21.72599,-29.54219 34.18304,-43.0027 3.79868,-4.11481 7.70009,-8.17785 11.61849,-12.12273 7.79673,-7.83435 15.79206,-15.47506 24.04506,-22.8282 7.9744,-7.09794 16.36813,-13.71885 25.09377,-19.86861 10.79816,-7.62169 21.8732,-14.86049 33.30604,-21.49682 1.28071,-0.72933 2.64943,-1.5333 3.93825,-2.25617 13.3694,-7.56982 27.18038,-14.36103 41.35044,-20.29955 17.21798,-7.20682 35.08071,-13.18594 53.22233,-17.77187 7.49635,-1.8996 15.16157,-3.59413 22.80475,-5.04067 7.59118,-1.438174 15.31116,-2.661779 23.01891,-3.649434 5.237,-0.678114 10.65752,-1.254438 15.92549,-1.727554 7.36401,-0.646675 14.81531,-1.098686 22.15874,-1.359379 4.99827,-0.170205 9.99888,-0.257333 15.00004,-0.26367 z M 762.97735,201.22688 c -2.42213,2.76541 -5.19886,5.19135 -7.89392,7.68301 -12.52966,11.35065 -25.49657,22.22706 -37.58083,34.06221 -2.51958,2.55352 -5.1285,5.06106 -7.21144,7.9966 -0.71531,1.00615 -1.29686,2.30114 -0.81299,3.53322 0.58453,1.70141 2.4449,2.42043 4.06788,2.74512 3.40326,0.64324 6.89119,0.52472 10.33757,0.46719 3.09848,-0.0823 6.14998,-0.30972 9.26265,-0.0892 0.58357,0.0539 1.17139,0.12153 1.73382,0.29295 -1.1191,1.62197 -2.71988,2.83003 -4.20374,4.099 -5.4543,4.37317 -11.19122,8.37603 -16.78569,12.56493 -7.58726,5.64969 -15.18475,11.29604 -22.48724,17.3129 -2.09626,1.78571 -4.27784,3.51406 -6.0469,5.6385 -0.96818,1.08241 -0.99446,2.8011 -0.13183,3.9507 1.23605,1.61993 3.26906,2.28695 5.11977,2.93476 6.4257,2.04832 13.17733,2.79177 19.62737,4.74982 -1.14165,1.00403 -2.29598,1.89787 -3.4717,2.8008 -0.99115,0.75265 -2.12057,1.58897 -3.18209,2.35268 -5.2558,3.78816 -10.72359,7.27091 -15.97977,11.05914 -2.93855,2.14091 -5.94996,4.20265 -8.68195,6.60825 -1.03758,1.02664 -2.1594,2.19684 -2.2295,3.74414 -0.11372,2.19433 0.67995,4.30254 1.32159,6.36603 2.40666,6.94672 5.27193,13.72371 8.0106,20.5429 10.47816,25.62794 21.07449,51.20816 31.51454,76.85157 3.54674,8.80802 7.15218,17.59811 10.32681,26.54923 1.10599,3.2496 2.28276,6.51375 2.77227,9.92531 0.15369,1.22929 0.20419,2.73654 -0.88799,3.57388 -1.22985,0.96994 -2.53807,1.83793 -3.7701,2.80765 -6.40481,4.5741 -12.97653,8.8768 -19.52863,13.26079 -22.4788,14.89212 -45.07893,29.568 -67.77757,44.11823 -9.40981,5.99449 -18.79276,12.03493 -28.34018,17.80921 -1.67969,0.9764 -3.34271,2.01031 -5.12885,2.77939 -1.46423,0.4018 -2.9703,-0.13958 -4.39225,-0.48668 -5.00303,-1.48358 -9.87365,-3.37327 -14.77635,-5.15241 -12.8775,-4.74701 -25.70242,-9.66536 -38.78951,-13.81502 -1.63705,-0.46473 -3.25713,-1.07138 -4.95706,-1.25262 -1.76877,-0.0694 -3.52642,0.76898 -4.54249,2.22657 -1.59097,2.24202 -2.27858,4.95972 -3.02545,7.56567 -1.80626,6.94095 -3.2401,13.97618 -4.46151,21.04209 -2.27536,13.48094 -3.63395,27.15422 -3.38422,40.83697 0.14608,7.44592 0.83338,14.90072 2.44304,22.18088 3.26833,15.53209 8.42718,30.62867 14.8001,45.15119 5.98377,13.55241 13.11517,26.61101 21.49788,38.83256 5.90156,8.76095 12.35593,17.14492 19.2835,25.11886 10.10865,11.64249 20.8889,22.67667 31.70201,33.66105 15.60372,15.79279 31.4644,31.3317 47.06741,47.12629 6.92595,7.02759 13.89403,14.01716 20.63666,21.22198 0.35991,0.39915 0.72885,0.7902 1.08255,1.19483 -2.71626,1.5312 -5.6955,2.5152 -8.60951,3.59505 -7.35434,2.57236 -14.77164,4.96899 -22.24489,7.1728 -16.40029,4.78388 -33.15584,8.53779 -50.06956,11.15155 -6.06552,0.93225 -12.166,1.71105 -18.30008,2.29411 -3.06317,0.2964 -6.17572,0.5358 -9.286,0.72555 -2.99412,0.17437 -6.14126,0.3012 -9.20748,0.40297 -14.07616,0.447 -28.2305,0.58343 -42.34187,0.48518 -3.03163,-0.0244 -6.06298,-0.0745 -9.09386,-0.1455 -2.94206,-0.102 -6.01949,-0.13935 -8.99253,-0.5139 -8.31713,-1.04678 -16.59925,-2.39828 -24.86595,-3.70486 -7.14691,-1.1592 -14.29104,-2.33903 -21.41168,-3.65184 -5.75268,-1.10355 -11.73364,-2.31338 -16.95414,-5.19143 -5.31849,-2.96859 -9.74215,-7.2358 -14.07597,-11.45433 -11.10374,-10.9792 -21.58337,-22.60768 -31.06904,-35.01819 -2.44692,-3.19733 -4.82754,-6.43456 -7.11088,-9.68567 -9.56768,-13.59154 -18.03869,-28.16167 -24.99728,-43.33534 -2.50124,-5.43946 -4.83959,-11.0294 -6.97702,-16.66007 -3.22536,-8.52671 -6.03493,-17.29849 -8.48636,-26.11169 -1.70355,-6.15116 -3.20623,-12.45036 -4.43507,-18.65698 -2.24004,-11.30308 -3.62291,-22.76577 -4.34766,-34.26278 -0.29014,-4.60981 -0.49328,-9.39298 -0.6024,-14.02253 -0.21395,-9.24994 -0.16881,-18.50529 0.0399,-27.75492 0.20111,-7.64145 0.64653,-15.26303 1.57529,-22.88268 1.46653,-12.18409 3.99725,-24.32618 6.55411,-36.39591 1.56062,-7.2486 3.08392,-14.50844 4.9136,-21.69524 0.1801,-0.66153 0.40702,-1.52988 0.61964,-2.26752 0.46284,-1.53124 0.88515,-3.10006 1.66699,-4.50593 1.42757,2.36262 2.54705,4.9285 3.65333,7.40479 2.19765,4.94613 3.93371,10.09141 6.30916,14.95855 0.75604,1.43974 1.604,3.1241 3.26215,3.65967 1.57606,0.46904 3.07287,-0.48431 4.50683,-1.00175 12.90658,-5.32173 25.73066,-10.84132 38.56554,-16.33179 13.31726,-5.69069 26.65989,-11.33097 40.14122,-16.62455 3.02753,-1.16323 6.05216,-2.38738 9.24285,-3.03382 5.90487,-1.31564 11.82963,-2.25446 17.81688,-2.9892 4.78342,-0.57033 9.62787,-0.99507 14.33303,-2.11786 1.59837,-0.45302 3.44374,-0.93535 4.38179,-2.43504 1.3601,-2.80277 2.43087,-5.73723 3.60358,-8.62191 5.88271,-14.92472 11.46701,-29.99238 17.10691,-44.99125 4.02798,-10.60096 8.05103,-21.20639 12.36813,-31.69384 0.87138,-1.95471 1.5248,-4.0844 3.03618,-5.66617 1.42343,-1.54366 3.24355,-2.63951 5.05373,-3.66797 0.43614,-0.2379 1.08316,-0.58918 1.60499,-0.85868 6.26709,-3.17859 12.76907,-5.86026 19.22518,-8.62457 9.74425,-4.1226 19.54635,-8.14161 29.04589,-12.81414 3.361,-1.71371 6.77619,-3.41883 9.72777,-5.79691 1.41043,-1.16703 2.83721,-2.74795 2.74071,-4.70422 -0.14235,-2.90735 -0.95928,-5.72796 -1.68009,-8.53275 -1.76919,-6.40006 -3.94578,-12.67829 -6.11327,-18.9519 -1.27922,-3.51823 -2.4919,-7.10178 -4.3992,-10.34152 -0.92395,-1.47044 -2.04116,-2.88177 -3.49249,-3.8582 -3.06527,-1.6262 -6.30615,-2.89116 -9.49455,-4.25127 -16.36039,-6.78283 -33.01596,-12.81672 -49.48512,-19.32591 -8.71881,-3.43614 -17.37477,-6.87384 -25.92566,-10.71898 -4.55786,-2.1104 -9.16202,-4.23268 -13.25229,-7.18077 -3.63613,-2.72455 -6.89136,-5.78024 -10.12315,-8.96234 -3.08793,-3.11111 -6.15461,-6.27599 -8.75878,-9.81158 -0.31429,-0.4737 -0.68311,-0.95539 -0.88623,-1.47363 1.62105,-1.52846 3.64817,-2.53015 5.58425,-3.59667 6.50132,-3.37827 13.27155,-6.20217 20.04137,-8.99016 13.59658,-5.52512 27.40307,-10.57211 41.24218,-15.38634 19.28295,-6.66032 38.72368,-12.88699 58.3936,-18.30821 15.22392,-4.13268 30.57146,-7.79145 45.92621,-11.40083 22.77434,-5.32228 45.61346,-10.38658 68.48486,-15.22764 14.66483,-3.06845 29.33649,-6.12248 44.09247,-8.72575 3.01185,-0.51041 5.98321,-1.02679 9.04089,-1.3823 0.32086,-0.0217 0.83116,-0.12683 1.04258,-0.0756 z m -321.93393,132.5892 c 3.75891,6.95918 7.49294,13.93328 11.05521,20.99565 0.54367,1.11992 1.19662,2.37057 1.68971,3.58364 0.31616,0.75614 0.63231,1.51229 0.94848,2.26843 -3.08049,0.63782 -6.19464,1.28949 -9.25775,1.76317 -7.59898,1.23725 -15.36085,2.28609 -23.06676,3.19383 -1.903,0.20777 -3.80973,0.4867 -5.71926,0.56938 -4.44076,-0.83426 -8.93259,-1.36234 -13.40127,-2.0239 -14.08276,-1.91282 -28.16817,-3.91097 -42.20526,-6.06812 -12.18622,-1.8763 -24.37258,-3.76249 -36.51311,-5.91875 -1.32597,-0.25443 -2.76871,-0.50326 -4.13088,-0.80275 2.68122,-1.20161 5.46304,-2.07704 8.1932,-3.0585 18.6931,-6.47586 37.45973,-12.70966 56.23665,-18.95083 12.90224,-4.25691 25.80993,-8.54222 38.75469,-12.62383 2.21497,-0.69318 4.4304,-1.40452 6.72374,-1.7936 0.5576,-0.3121 0.62005,0.43931 0.87723,0.77247 3.27179,6.03123 6.54359,12.06247 9.81538,18.09371 z m 99.11157,7.23781 c 6.1825,-0.0692 12.47867,1.7821 17.31245,5.71338 4.80028,3.82606 7.92533,9.50359 9.10089,15.48735 1.247,6.2964 0.84778,13.05618 -1.91812,18.91295 -2.7227,5.86089 -7.72222,10.53165 -13.5711,13.20295 -3.9169,1.61301 -8.23591,1.95957 -12.43226,1.79994 -4.85336,-0.2457 -9.76988,-1.21732 -14.08076,-3.53637 -6.05361,-3.37233 -10.421,-9.3486 -12.45087,-15.91291 -1.37465,-4.41402 -1.6259,-9.20302 -0.48208,-13.69801 1.38896,-6.14742 4.61417,-12.00854 9.62045,-15.93252 3.2858,-2.64079 7.27061,-4.28109 11.37153,-5.15396 2.47071,-0.55104 4.99754,-0.85952 7.52987,-0.8828 z m -219.71685,21.30913 c 1.03891,0.0922 2.25196,0.2306 3.35744,0.34717 8.18911,0.94298 16.44707,2.09059 24.632,3.21311 18.77756,2.61383 37.54801,5.3312 56.26128,8.23477 4.35707,0.71813 8.73688,1.32467 13.06056,2.22794 2.29527,0.97282 4.38302,2.36809 6.50083,3.67029 7.75927,4.96667 15.32776,10.374 22.7652,15.87537 4.13481,3.11564 8.3336,6.2464 12.21486,9.71642 0.51551,0.53405 1.18167,0.99173 1.51643,1.65946 0.0958,1.20239 -0.62209,2.28075 -1.1703,3.29835 -0.63449,1.07974 -1.4506,2.23309 -2.1238,3.16741 -1.60844,2.17775 -3.31531,4.30862 -5.00707,6.35766 -3.90555,4.7025 -7.90947,9.46148 -12.06218,14.03554 -2.69096,2.90369 -5.37836,5.83636 -8.41346,8.3879 -0.43699,0.31721 -0.87295,0.85332 -1.47383,0.63879 -2.18829,-0.46688 -4.13331,-1.6552 -6.06501,-2.73473 -4.67098,-2.75422 -9.10833,-5.85966 -13.52964,-8.95317 -8.96381,-6.33023 -17.75275,-12.91878 -26.55716,-19.4937 -16.98132,-12.74447 -33.87877,-25.60195 -50.61557,-38.66635 -4.60553,-3.62902 -9.25333,-7.20988 -13.71392,-11.01738 0.14111,0.0117 0.28223,0.0234 0.42334,0.0351 z m 137.10825,8.19436 c 1.03774,-0.0328 1.89928,0.65074 2.43732,1.48329 1.79829,2.67613 3.05974,5.67043 4.25804,8.65149 1.75188,4.49717 3.25915,9.09677 4.38475,13.79204 0.0804,0.3438 0.21178,0.95484 0.30176,1.40332 0.15394,0.9881 0.43503,2.00625 0.2904,3.00475 -0.0859,0.28255 -0.2791,0.59464 -0.62359,0.43516 -1.82558,-0.45168 -3.39313,-1.56899 -4.98128,-2.5317 -5.89411,-3.87493 -11.50578,-8.15643 -17.21699,-12.29116 -4.17224,-3.11134 -8.44158,-6.10301 -12.44178,-9.43692 -0.43657,-0.29569 -0.59301,-0.54857 0.0445,-0.59447 5.33264,-1.34313 10.75774,-2.2883 16.18681,-3.14624 2.44019,-0.33353 4.89086,-0.77994 7.3601,-0.76956 z M 736.50021,488.315 c 2.226,3.15663 3.99108,6.60859 5.76915,10.02975 3.76916,7.394 7.92212,14.58483 12.0196,21.80035 13.87735,24.14586 28.13339,48.06922 42.3943,71.9904 14.49394,24.31413 29.1555,48.52909 43.64756,72.84478 5.58864,9.42569 11.22498,18.84531 16.52891,28.44839 1.80016,3.3688 3.69279,6.71865 4.98399,10.3244 0.39915,1.23943 0.83648,2.65001 0.20048,3.89042 -1.25213,2.90113 -3.09399,5.49753 -4.87659,8.09027 -4.53331,6.37965 -9.54865,12.47036 -14.60659,18.39141 -4.97971,5.79881 -10.11422,11.46406 -15.34428,16.98053 -6.86665,7.24471 -13.98484,14.25551 -21.46071,20.87255 -6.11236,5.44501 -12.4222,10.70477 -18.81379,15.76916 -10.95971,8.65637 -22.36648,16.92139 -34.15966,24.47961 -2.95536,1.89616 -6.08472,3.82066 -9.0929,5.60979 -5.19161,3.03181 -10.43111,6.01412 -15.9267,8.46542 -0.47551,0.1566 -0.99151,0.60308 -1.45303,0.20445 -3.74327,-2.06333 -7.29263,-4.45688 -10.87834,-6.77829 -13.12956,-8.6467 -26.10552,-17.62534 -39.02913,-26.63084 -12.9393,-9.05792 -25.85428,-18.19362 -38.58464,-27.57232 -4.13263,-3.05738 -8.25797,-6.12706 -12.28128,-9.3277 -2.39292,-1.929 -4.87272,-3.96676 -7.24814,-5.99927 -2.50614,-2.13486 -5.10232,-4.41047 -7.52411,-6.65866 -2.20861,-2.03867 -4.4052,-4.32412 -6.46538,-6.59994 -1.85773,-2.07204 -3.69731,-4.23007 -5.41029,-6.34715 -8.33455,-10.30741 -15.73305,-21.339 -22.65239,-32.63496 -9.55944,-15.70326 -18.1262,-32.0149 -25.57155,-48.82468 -2.19944,-5.00238 -4.27256,-10.11517 -6.05949,-15.23988 -1.93255,-5.55897 -3.59231,-11.35309 -4.71488,-17.18251 -0.58174,-3.0051 -1.01683,-5.94236 -1.3319,-9.00843 -0.45787,-4.46197 -0.61679,-8.85368 -0.54228,-13.33113 0.0427,-2.86073 0.19567,-5.83753 0.4074,-8.6802 0.6004,-7.70834 1.66808,-15.37173 2.82216,-23.01388 0.54689,-3.24912 1.00845,-6.5457 2.1152,-9.66285 0.35465,-0.79829 0.69925,-1.92516 1.69524,-2.07674 1.20003,-0.0141 2.35582,0.43126 3.51087,0.71444 5.09906,1.4577 10.11213,3.1874 15.08835,4.892 13.53691,4.68046 26.96264,9.67341 40.40213,14.62454 3.23141,-1.73315 6.52346,-3.35609 9.71095,-5.16925 7.83436,-4.65821 15.4994,-9.59458 23.19678,-14.47413 18.55447,-11.84016 36.92332,-23.96808 55.43956,-35.86759 11.93168,-7.66543 23.81376,-15.31554 35.90135,-22.7117 2.45681,-1.48028 4.89283,-2.96923 7.38548,-4.31123 0.25483,-0.0706 0.58805,-0.42351 0.80859,-0.31933 z M 544.10715,656.9116 c 2.03638,4.06894 3.95625,8.19656 6.10609,12.2082 6.51218,12.34761 13.56712,24.40224 20.87487,36.29442 4.72802,7.5977 9.51147,15.17501 14.817,22.38721 5.17636,6.98066 10.89706,13.5611 17.18419,19.56465 9.17957,8.79155 19.21674,16.62705 29.35563,24.27122 15.62381,11.6956 31.62632,22.87145 47.63876,34.02503 9.17674,6.41244 18.47085,12.65981 27.52708,19.24445 3.04566,2.2719 6.1552,4.49221 8.8953,7.13567 0.29106,0.29347 0.57388,0.59647 0.82368,0.92625 -3.63573,2.337 -7.64221,4.00898 -11.56887,5.78469 -2.42218,1.02315 -4.82119,2.19405 -7.40969,2.73338 -1.45395,0.33968 -2.89272,-0.38243 -3.93458,-1.35353 -4.71451,-4.01063 -9.30156,-8.25204 -13.90707,-12.43953 -17.15635,-15.74576 -34.17507,-31.65038 -50.69122,-48.06942 -14.02912,-13.97913 -27.73674,-28.31474 -40.38439,-43.56698 -12.59789,-15.20518 -24.13292,-31.54359 -32.85061,-49.34656 -3.41576,-6.96634 -6.57587,-14.21535 -9.46106,-21.4778 -1.15318,-2.93061 -2.26763,-5.87715 -3.29049,-8.85601 0.0918,0.17822 0.18359,0.35644 0.27538,0.53466 z" /><path
       id="path2"
       style="fill:#000000;fill-opacity:1;stroke-width:0.210102"
       d="m 538.95675,349.38447 c -5.94557,0.28803 -11.81256,3.14326 -15.46743,7.88263 -1.38101,1.8799 -2.4981,4.0108 -2.98818,6.30442 -0.45441,2.54834 -0.32319,5.15479 -0.27393,7.73 0.06,2.86734 1.0242,5.65469 2.46146,8.11427 2.70001,4.58457 7.64863,7.65192 12.89991,8.30463 2.88011,0.3518 5.82104,0.25535 8.67535,-0.25901 3.40675,-0.63087 6.44067,-2.55623 8.8456,-4.99978 2.86042,-2.83738 4.99764,-6.53161 5.56553,-10.55366 0.2239,-2.50434 0.2165,-5.04521 -0.14182,-7.53641 -0.54191,-2.48596 -1.61594,-4.85432 -3.03505,-6.96247 -2.57021,-3.83223 -6.6894,-6.51603 -11.18101,-7.50042 -1.75444,-0.40313 -3.55993,-0.60264 -5.36043,-0.5242 z" /></g></svg>
