<?xml version="1.0" encoding="UTF-8" standalone="no"?>
<svg
   width="575.44031"
   zoomAndPan="magnify"
   viewBox="0 0 431.58023 130.61539"
   height="174.15385"
   preserveAspectRatio="xMidYMid"
   version="1.0"
   id="svg56"
   xmlns="http://www.w3.org/2000/svg"
   xmlns:svg="http://www.w3.org/2000/svg">
  <defs
     id="defs1">
    <clipPath
       id="65ce2266b9">
      <path
         d="M 325.47656,19 H 377 v 86 h -51.52344 z m 0,0"
         clip-rule="nonzero"
         id="path1" />
    </clipPath>
    <clipPath
       id="62ee3f70a3">
      <rect
         x="0"
         width="72"
         y="0"
         height="72"
         id="rect1" />
    </clipPath>
  </defs>
  <g
     id="layer2"
     transform="translate(-43.256833,-9.2882215)" />
  <g
     id="layer1"
     style="display:inline"
     transform="translate(-43.256833,-9.2882215)">
    <g
       fill="#000000"
       fill-opacity="1"
       id="g5"
       transform="translate(6.0199631)">
      <g
         transform="translate(36.264214,99.739273)"
         id="g4">
        <g
           id="g3">
          <path
             d="m 16.730469,0.972656 c -1.25,0 -2.738281,0.125 -4.464844,0.378906 C 10.449219,1.617188 8.738281,1.75 7.132812,1.75 5.527344,1.75 4.167969,1.507812 3.050781,1.023438 1.664062,0.417969 0.972656,-0.742188 0.972656,-2.464844 c 0,-1.203125 0.300782,-2.132812 0.902344,-2.792968 0.421875,-0.464844 0.929688,-1.058594 1.523438,-1.78125 0.519531,-0.628907 0.976562,-1.65625 1.371093,-3.078126 0.410157,-1.472656 0.613281,-3.675781 0.613281,-6.613281 0,-3.984375 0.019532,-6.867187 0.066407,-8.648437 0.042969,-1.765625 0.0625,-3.054688 0.0625,-3.867188 v -2.789062 c 0,-2.105469 -0.292969,-3.523438 -0.886719,-4.25 -0.675781,-0.839844 -1.347656,-1.492188 -2.007812,-1.960938 -1.011719,-0.710937 -1.515626,-1.796875 -1.515626,-3.257812 0,-1.679688 0.601563,-2.851563 1.800782,-3.511719 0.949218,-0.519531 2.269531,-0.964844 3.960937,-1.328125 1.5625,-0.339844 3.449219,-0.890625 5.660157,-1.65625 l 0.316406,0.917969 L 12.5,-47.992188 c 2.671875,-1 4.484375,-1.878906 5.441406,-2.640624 1.007813,-0.796876 1.761719,-1.441407 2.253906,-1.933594 0.707032,-0.710938 1.757813,-1.0625 3.148438,-1.0625 2.007812,0 3.347656,0.902344 4.023438,2.707031 0.5625,1.492187 0.84375,3.25 0.84375,5.269531 v 1.035156 c 0,0.496094 0.03516,0.839844 0.105468,1.035157 0.0039,0.01563 0.0078,0.02734 0.0078,0.02734 -0.01172,-0.01953 -0.03125,-0.04297 -0.05859,-0.07031 -0.105469,-0.09766 -0.234375,-0.148438 -0.378906,-0.148438 l -0.02344,-0.0078 c 0.07813,-0.03516 0.179688,-0.09766 0.296875,-0.183594 0.296875,-0.210937 0.664063,-0.546875 1.097656,-1 0.972657,-1.015625 2.226563,-2.183594 3.765626,-3.503906 1.578124,-1.351562 3.46875,-2.546875 5.667968,-3.578125 2.25,-1.054687 4.785156,-1.582031 7.609375,-1.582031 2.855469,0 5.222657,0.539062 7.101563,1.621094 1.839844,1.058593 3.296875,2.289062 4.371094,3.6875 1.015624,1.324218 1.835937,2.5 2.457031,3.523437 0.269531,0.4375 0.496093,0.753906 0.683593,0.953125 0.05859,0.0625 0.105469,0.101562 0.132813,0.117188 -0.05078,-0.03125 -0.125,-0.04688 -0.21875,-0.04688 0.335937,0 0.886719,-0.378906 1.648437,-1.140624 0.960938,-0.960938 2.179688,-2.117188 3.664063,-3.46875 1.539063,-1.40625 3.414063,-2.628907 5.621094,-3.664063 2.25,-1.054687 4.917969,-1.582031 8.003906,-1.582031 4.296875,0 7.574219,0.9375 9.828125,2.820312 2.230469,1.855469 3.738281,4.179688 4.53125,6.964844 0.757812,2.679688 1.136719,5.40625 1.136719,8.175781 v 18.9375 c 0,2.9375 0.207031,5.140625 0.613281,6.613281 0.398438,1.433594 0.84375,2.472657 1.328125,3.105469 0.535156,0.703125 1.027344,1.273438 1.472656,1.71875 0.664063,0.667969 0.996094,1.609375 0.996094,2.828125 0,1.667969 -0.527344,2.8125 -1.582031,3.433594 C 97.203125,1.488281 96.066406,1.75 94.679688,1.75 c -1.261719,0 -2.71875,-0.132812 -4.371094,-0.402344 -1.546875,-0.25 -3.03125,-0.375 -4.449219,-0.375 -1.339844,0 -2.488281,0.0625 -3.441406,0.1875 -0.984375,0.128906 -2.039063,0.277344 -3.15625,0.449219 l -0.02344,0.00391 -0.02734,0.00391 c -2.007813,0.199218 -3.660157,-0.269532 -4.953126,-1.40625 -1.300781,-1.144532 -1.953124,-2.726563 -1.953124,-4.75 v -21.269532 c 0,-4.03125 -0.386719,-7.074218 -1.167969,-9.125 -0.660157,-1.742187 -1.894531,-2.613281 -3.695313,-2.613281 -1.503906,0 -2.808594,0.679687 -3.914062,2.039063 -1.148438,1.421874 -1.726563,4.4375 -1.726563,9.050781 v 9.726562 c 0,2.9375 0.203125,5.140625 0.613281,6.613281 0.394532,1.421876 0.851563,2.449219 1.371094,3.078126 0.59375,0.722656 1.101563,1.316406 1.523438,1.78125 0.601562,0.660156 0.902344,1.589843 0.902344,2.792968 0,1.667969 -0.527344,2.8125 -1.582032,3.433594 C 63.742188,1.488281 62.605469,1.75 61.21875,1.75 c -1.265625,0 -2.722656,-0.132812 -4.371094,-0.402344 -1.550781,-0.25 -3.03125,-0.375 -4.449218,-0.375 -1.34375,0 -2.488282,0.0625 -3.441407,0.1875 -0.988281,0.128906 -2.039062,0.277344 -3.15625,0.449219 l -0.02344,0.00391 -0.02734,0.00391 c -2.011719,0.199218 -3.660156,-0.269532 -4.953125,-1.40625 -1.300781,-1.144532 -1.953125,-2.726563 -1.953125,-4.75 v -21.269532 c 0,-4.027344 -0.410156,-7.0625 -1.226562,-9.109375 -0.703126,-1.753906 -1.957032,-2.628906 -3.765626,-2.628906 -1.621093,0 -2.941406,0.855469 -3.964843,2.574219 -1.117188,1.875 -1.675781,5.882812 -1.675781,12.015625 v 6.226562 c 0,2.9375 0.203124,5.140625 0.609374,6.613281 0.398438,1.421876 0.855469,2.449219 1.371094,3.078126 0.597656,0.722656 1.105469,1.316406 1.527344,1.78125 0.601562,0.660156 0.898438,1.589843 0.898438,2.792968 0,1.722656 -0.691407,2.882813 -2.074219,3.488282 C 29.425781,1.507812 28.0625,1.75 26.457031,1.75 24.769531,1.75 23.011719,1.617188 21.195312,1.351562 19.46875,1.097656 17.980469,0.972656 16.730469,0.972656 Z m 0,-1.945312 c 1.34375,0 2.925781,0.132812 4.746093,0.398437 1.726563,0.253907 3.386719,0.378907 4.980469,0.378907 1.335938,0 2.4375,-0.1875 3.308594,-0.566407 0.605469,-0.261719 0.90625,-0.832031 0.90625,-1.703125 0,-0.699218 -0.128906,-1.195312 -0.394531,-1.484375 -0.441406,-0.488281 -0.972656,-1.105469 -1.585938,-1.851562 -0.695312,-0.84375 -1.273437,-2.105469 -1.742187,-3.796875 -0.457031,-1.640625 -0.683594,-4.019532 -0.683594,-7.132813 v -6.226562 c 0,-6.488281 0.648437,-10.828125 1.949219,-13.011719 1.402344,-2.351562 3.277344,-3.523438 5.636718,-3.523438 2.6875,0 4.542969,1.285157 5.570313,3.851563 0.914063,2.277344 1.367187,5.554687 1.367187,9.832031 v 21.269532 c 0,1.4375 0.429688,2.53125 1.292969,3.289062 0.867188,0.765625 2.027344,1.074219 3.476563,0.929688 l 0.09375,0.96875 -0.148438,-0.960938 c 1.132813,-0.175781 2.199219,-0.328125 3.203125,-0.457031 1.035157,-0.136719 2.265625,-0.203125 3.691407,-0.203125 1.523437,0 3.109374,0.132812 4.757812,0.402344 1.550781,0.25 2.902344,0.375 4.0625,0.375 1.03125,0 1.839844,-0.171876 2.421875,-0.511719 0.417969,-0.246094 0.625,-0.832031 0.625,-1.757813 0,-0.699218 -0.132813,-1.195312 -0.394531,-1.484375 -0.445313,-0.488281 -0.972656,-1.105469 -1.589844,-1.851562 -0.691406,-0.84375 -1.273438,-2.105469 -1.742188,-3.796875 -0.457031,-1.640625 -0.683593,-4.019532 -0.683593,-7.132813 v -9.726562 c 0,-5.074219 0.722656,-8.5 2.164062,-10.277344 1.488281,-1.839844 3.296875,-2.757813 5.421875,-2.757813 2.695313,0 4.535156,1.289063 5.515625,3.867188 0.863281,2.273438 1.292969,5.546875 1.292969,9.816406 v 21.269532 c 0,1.4375 0.433594,2.53125 1.292969,3.289062 0.867187,0.765625 2.027343,1.074219 3.476562,0.929688 l 0.09766,0.96875 L 78.96875,-0.3125 c 1.128906,-0.175781 2.195312,-0.328125 3.199219,-0.457031 1.035156,-0.136719 2.265625,-0.203125 3.691406,-0.203125 1.523437,0 3.109375,0.132812 4.761719,0.402344 1.546875,0.25 2.898437,0.375 4.058594,0.375 1.035156,0 1.839843,-0.171876 2.425781,-0.511719 0.414062,-0.246094 0.621093,-0.832031 0.621093,-1.757813 0,-0.683594 -0.140624,-1.164062 -0.429687,-1.453125 C 96.792969,-4.421875 96.246094,-5.058594 95.65625,-5.828125 95.019531,-6.664062 94.46875,-7.917969 94,-9.597656 c -0.453125,-1.640625 -0.683594,-4.019532 -0.683594,-7.132813 v -18.9375 c 0,-2.589843 -0.355468,-5.136719 -1.066406,-7.644531 -0.679688,-2.402344 -1.980469,-4.402344 -3.898438,-6.003906 -1.898437,-1.578125 -4.757812,-2.367188 -8.585937,-2.367188 -2.796875,0 -5.1875,0.464844 -7.175781,1.398438 -2.03125,0.953125 -3.742188,2.066406 -5.140625,3.339844 -1.457031,1.332031 -2.65625,2.464843 -3.597657,3.40625 -1.140624,1.140624 -2.148437,1.710937 -3.023437,1.710937 -0.710937,0 -1.460937,-0.652344 -2.257813,-1.957031 -0.585937,-0.964844 -1.367187,-2.082032 -2.339843,-3.351563 -0.914063,-1.195312 -2.183594,-2.257812 -3.796875,-3.1875 -1.582032,-0.90625 -3.625,-1.359375 -6.132813,-1.359375 -2.535156,0 -4.796875,0.464844 -6.785156,1.398438 -2.039063,0.957031 -3.78125,2.054687 -5.226563,3.296875 -1.488281,1.273437 -2.695312,2.398437 -3.625,3.367187 -1.144531,1.195313 -2.070312,1.792969 -2.777343,1.792969 -1.082031,0 -1.621094,-0.929687 -1.621094,-2.789063 v -1.035156 c 0,-1.785156 -0.242187,-3.316406 -0.71875,-4.589844 -0.359375,-0.960937 -1.09375,-1.441406 -2.203125,-1.441406 -0.855469,0 -1.445312,0.164063 -1.773438,0.492188 -0.546874,0.546875 -1.351562,1.242187 -2.417968,2.085937 -1.117188,0.882813 -3.109375,1.863281 -5.972656,2.9375 l -0.0078,0.0039 -0.01172,0.0039 c -2.285156,0.789062 -4.25,1.363281 -5.886718,1.71875 -1.507813,0.324218 -2.652344,0.703125 -3.433594,1.132812 -0.527344,0.289063 -0.792969,0.890625 -0.792969,1.804688 0,0.789062 0.230469,1.34375 0.691406,1.671875 0.808594,0.570312 1.609375,1.34375 2.398438,2.320312 0.882812,1.085938 1.320312,2.914063 1.320312,5.476563 v 2.789062 c 0,0.828125 -0.019531,2.132813 -0.066406,3.914063 -0.042969,1.765625 -0.0625,4.632812 -0.0625,8.601562 0,3.113281 -0.226563,5.492188 -0.683594,7.132813 C 6.175781,-7.90625 5.59375,-6.644531 4.902344,-5.800781 4.285156,-5.054688 3.757812,-4.4375 3.3125,-3.949219 c -0.261719,0.289063 -0.394531,0.785157 -0.394531,1.484375 0,0.871094 0.300781,1.441406 0.90625,1.703125 0.871093,0.378907 1.972656,0.566407 3.308593,0.566407 1.507813,0 3.128907,-0.125 4.851563,-0.378907 1.820313,-0.265625 3.402344,-0.398437 4.746094,-0.398437 z m 0,0"
             id="path3" />
        </g>
      </g>
    </g>
    <g
       fill="#000000"
       fill-opacity="1"
       id="g8"
       transform="translate(6.0199631)">
      <g
         transform="translate(132.75439,99.739273)"
         id="g7">
        <g
           id="g6">
          <path
             d="m 0.324219,-41.503906 c 0,-1.679688 0.601562,-2.851563 1.800781,-3.511719 0.949219,-0.519531 2.269531,-0.964844 3.960938,-1.328125 1.558593,-0.339844 3.445312,-0.890625 5.65625,-1.65625 l 0.320312,0.917969 -0.34375,-0.910157 c 2.671875,-1 4.488281,-1.878906 5.445312,-2.640624 1.007813,-0.796876 1.757813,-1.441407 2.25,-1.933594 0.710938,-0.710938 1.761719,-1.0625 3.152344,-1.0625 2.007813,0 3.347656,0.902344 4.023438,2.707031 0.5625,1.492187 0.839844,3.25 0.839844,5.269531 h -0.972657 l 0.972657,-0.03125 0.195312,6.550782 c 0.04297,1.695312 0.06641,3.890624 0.06641,6.578124 v 6.355469 c 0,5.296875 0.441406,8.851563 1.328125,10.664063 0.773438,1.578125 1.949219,2.371094 3.535157,2.371094 1.566406,0 2.695312,-0.78125 3.390624,-2.339844 0.808594,-1.820313 1.214844,-5.429688 1.214844,-10.824219 v -6.226563 c 0,-1.921874 -0.292968,-3.226562 -0.871094,-3.910156 -0.683593,-0.800781 -1.359374,-1.4375 -2.027343,-1.910156 C 33.253906,-39.085938 32.75,-40.128906 32.75,-41.503906 c 0,-1.679688 0.597656,-2.851563 1.800781,-3.511719 0.945313,-0.519531 2.265625,-0.964844 3.957031,-1.328125 1.5625,-0.339844 3.449219,-0.890625 5.660157,-1.65625 l 0.316406,0.917969 -0.339844,-0.910157 c 2.671875,-1 4.488281,-1.878906 5.445313,-2.640624 1.007812,-0.796876 1.757812,-1.441407 2.25,-1.933594 0.707031,-0.710938 1.757812,-1.0625 3.152344,-1.0625 2.003906,0 3.347656,0.902344 4.023437,2.707031 0.558594,1.492187 0.839844,3.25 0.839844,5.269531 l 0.128906,10.492188 c 0,3.894531 0.02344,7.003906 0.06641,9.332031 0.04297,2.339844 0.0625,4.207031 0.0625,5.59375 v 3.632813 c 0,2.9375 0.207031,5.144531 0.613281,6.613281 0.398438,1.425781 0.851563,2.449219 1.371094,3.078125 0.59375,0.722656 1.105469,1.316406 1.527344,1.78125 0.597656,0.660156 0.898438,1.59375 0.898438,2.792968 0,1.667969 -0.527344,2.8125 -1.582032,3.433594 -0.886718,0.523438 -2.023437,0.78125 -3.410156,0.78125 -1.261719,0 -2.71875,-0.132812 -4.371094,-0.398437 -1.546875,-0.253907 -3.03125,-0.378907 -4.449218,-0.378907 -1.339844,0 -2.488282,0.0625 -3.441407,0.1875 -0.984375,0.128907 -2.039062,0.277344 -3.152343,0.449219 l -0.04688,0.00781 C 42.171875,1.945312 40.605469,1.578125 39.363281,0.648438 38.101562,-0.296875 37.371094,-1.640625 37.164062,-3.386719 37,-4.625 36.828125,-5.542969 36.648438,-6.140625 c -0.07031,-0.238281 -0.136719,-0.402344 -0.191407,-0.488281 0.08984,0.140625 0.257813,0.207031 0.507813,0.207031 0.06641,0 0.117187,-0.00391 0.152344,-0.019531 -0.01953,0.00781 -0.05469,0.027344 -0.09766,0.054687 C 36.875,-6.300781 36.683594,-6.160156 36.453125,-5.96875 35.941406,-5.535156 35.265625,-4.878906 34.425781,-4 32.949219,-2.429688 30.828125,-1.078125 28.058594,0.0585938 25.304688,1.1875 22.695312,1.75 20.234375,1.75 16.023438,1.75 12.769531,0.8125 10.472656,-1.0625 8.199219,-2.921875 6.664062,-5.246094 5.875,-8.035156 5.113281,-10.714844 4.734375,-13.441406 4.734375,-16.210938 v -15.824218 c 0,-2.105469 -0.296875,-3.523438 -0.886719,-4.25 C 3.167969,-37.125 2.5,-37.777344 1.839844,-38.246094 0.828125,-38.957031 0.324219,-40.042969 0.324219,-41.503906 Z m 1.945312,0 c 0,0.789062 0.230469,1.34375 0.691407,1.671875 0.808593,0.570312 1.609374,1.34375 2.398437,2.320312 0.878906,1.085938 1.320313,2.914063 1.320313,5.476563 v 15.824218 c 0,2.589844 0.355468,5.136719 1.066406,7.644532 0.679687,2.398437 1.996094,4.398437 3.957031,5.996094 1.941406,1.585937 4.785156,2.375 8.53125,2.375 2.207031,0 4.566406,-0.515626 7.085937,-1.546876 2.507813,-1.027343 4.40625,-2.226562 5.695313,-3.597656 0.890625,-0.933594 1.621094,-1.640625 2.1875,-2.117187 0.722656,-0.605469 1.308594,-0.910157 1.761719,-0.910157 0.699218,0 1.214844,0.558594 1.546875,1.667969 0.210937,0.699219 0.40625,1.726563 0.585937,3.082031 0.140625,1.195313 0.617188,2.097657 1.433594,2.710938 0.832031,0.625 1.945312,0.8632812 3.335938,0.71875 l 0.101562,0.964844 -0.148438,-0.960938 c 1.128907,-0.171875 2.195313,-0.324218 3.199219,-0.457031 1.035157,-0.136719 2.265625,-0.203125 3.691407,-0.203125 1.523437,0 3.109374,0.132812 4.761718,0.402344 1.546875,0.25 2.898438,0.3749998 4.058594,0.3749998 1.035156,0 1.84375,-0.1679688 2.425781,-0.5117188 0.414063,-0.246094 0.621094,-0.832031 0.621094,-1.757813 0,-0.699218 -0.132813,-1.195312 -0.394531,-1.484374 -0.441406,-0.488282 -0.972656,-1.105469 -1.585938,-1.851563 -0.695312,-0.839844 -1.273437,-2.105469 -1.746094,-3.796875 -0.453124,-1.640625 -0.683593,-4.019531 -0.683593,-7.132812 v -3.632813 c 0,-1.375 -0.01953,-3.230469 -0.0625,-5.558594 -0.04297,-2.339843 -0.06641,-5.453125 -0.06641,-9.34375 l -0.128906,-10.515625 c 0,-1.785156 -0.238281,-3.316406 -0.714844,-4.589844 -0.363281,-0.960937 -1.097656,-1.441406 -2.203124,-1.441406 -0.855469,0 -1.449219,0.164063 -1.777344,0.492188 -0.542969,0.546875 -1.351563,1.242187 -2.417969,2.085937 -1.117187,0.882813 -3.105469,1.863281 -5.96875,2.9375 l -0.02344,0.0078 c -2.285157,0.789062 -4.246094,1.363281 -5.882813,1.71875 -1.507813,0.324218 -2.652344,0.703125 -3.433594,1.132812 -0.53125,0.289063 -0.792969,0.890625 -0.792969,1.804688 0,0.703125 0.230469,1.214844 0.6875,1.539062 0.804688,0.566406 1.597657,1.3125 2.386719,2.242188 0.890625,1.046875 1.335938,2.769531 1.335938,5.167968 v 6.226563 c 0,5.671875 -0.460938,9.542969 -1.382813,11.613281 -1.035156,2.332032 -2.757812,3.496094 -5.167968,3.496094 -2.394532,0 -4.15625,-1.15625 -5.285157,-3.464844 -1.015625,-2.078125 -1.523437,-5.917968 -1.523437,-11.515625 v -6.355469 c 0,-2.671874 -0.02344,-4.84375 -0.06641,-6.519531 l -0.195313,-6.566406 v -0.01172 c 0,-1.785156 -0.238281,-3.316406 -0.714844,-4.589844 -0.359375,-0.960937 -1.09375,-1.441406 -2.203125,-1.441406 -0.855468,0 -1.445312,0.164063 -1.777344,0.492188 -0.542968,0.546875 -1.351562,1.242187 -2.417968,2.085937 -1.117188,0.882813 -3.105469,1.863281 -5.96875,2.9375 l -0.02344,0.0078 c -2.285156,0.789062 -4.246094,1.363281 -5.882812,1.71875 -1.507813,0.324218 -2.652344,0.703125 -3.433594,1.132812 -0.527344,0.289063 -0.792969,0.890625 -0.792969,1.804688 z m 0,0"
             id="path5" />
        </g>
      </g>
    </g>
    <g
       fill="#000000"
       fill-opacity="1"
       id="g11"
       transform="translate(6.0199631)">
      <g
         transform="translate(193.44974,99.739273)"
         id="g10">
        <g
           id="g9">
          <path
             d="m 1.621094,-12.449219 c 0,-1.992187 0.585937,-3.597656 1.761718,-4.824219 1.1875,-1.238281 2.867188,-1.855468 5.046876,-1.855468 1.941406,0 3.527343,0.71875 4.761718,2.152344 1.054688,1.234374 2.152344,2.636718 3.289063,4.214843 1.0625,1.46875 2.410156,2.777344 4.050781,3.921875 1.5625,1.09375 3.710938,1.640625 6.445312,1.640625 2.132813,0 3.792969,-0.21875 4.984376,-0.652343 0.871093,-0.320313 1.304687,-1.117188 1.304687,-2.394532 0,-1.007812 -0.589844,-1.851562 -1.777344,-2.527344 -1.453125,-0.832031 -3.3125,-1.601562 -5.582031,-2.316406 -2.34375,-0.738281 -4.835938,-1.5625 -7.480469,-2.472656 -2.699219,-0.929688 -5.246093,-2.101562 -7.636719,-3.519531 -2.457031,-1.457031 -4.484374,-3.347657 -6.078124,-5.667969 -1.628907,-2.371094 -2.441407,-5.34375 -2.441407,-8.917969 0,-4.019531 0.929688,-7.265625 2.789063,-9.726562 1.832031,-2.429688 4.125,-4.238281 6.875,-5.429688 2.675781,-1.160156 5.335937,-1.921875 7.972656,-2.277343 2.59375,-0.351563 4.734375,-0.527344 6.421875,-0.527344 4.496094,0 8.6875,0.527344 12.578125,1.589844 3.945312,1.078124 7.144531,2.679687 9.589844,4.808593 2.558594,2.226563 3.835937,4.957031 3.835937,8.191407 0,1.746093 -0.640625,3.234374 -1.917969,4.464843 -1.269531,1.214844 -2.769531,1.824219 -4.5,1.824219 -2.5,0 -4.53125,-0.710938 -6.101562,-2.132812 -1.4375,-1.300782 -2.738281,-2.78125 -3.902344,-4.441407 -1.078125,-1.53125 -2.320312,-2.898437 -3.726562,-4.097656 -1.289063,-1.097656 -2.980469,-1.648437 -5.078125,-1.648437 -1.988281,0 -3.257813,0.398437 -3.796875,1.195312 -0.625,0.917969 -0.9375,1.835938 -0.9375,2.761719 0,1.269531 0.578125,2.246093 1.726562,2.921875 1.386719,0.816406 3.199219,1.492187 5.441406,2.03125 2.34375,0.566406 4.816407,1.195312 7.414063,1.886718 2.660156,0.710938 5.183594,1.664063 7.578125,2.859376 2.484375,1.242187 4.507812,2.988281 6.070312,5.246093 1.585938,2.285157 2.378907,5.257813 2.378907,8.917969 0,4.671875 -1.367188,8.421875 -4.097657,11.246094 -2.671874,2.761718 -6.078124,4.75 -10.21875,5.9648435 C 34.597656,1.152344 30.3125,1.75 25.808594,1.75 23.941406,1.75 21.683594,1.53125 19.035156,1.089844 16.375,0.644531 13.738281,-0.0859375 11.125,-1.105469 8.449219,-2.148438 6.21875,-3.5625 4.433594,-5.34375 c -1.875,-1.875 -2.8125,-4.246094 -2.8125,-7.105469 z m 1.945312,0 c 0,2.324219 0.75,4.234375 2.246094,5.730469 1.589844,1.589844 3.59375,2.855469 6.019531,3.800781 2.488281,0.972657 4.996094,1.667969 7.523438,2.089844 2.539062,0.421875 4.691406,0.632813 6.453125,0.632813 4.316406,0 8.421875,-0.570313 12.308594,-1.710938 3.8125,-1.117188 6.933593,-2.933594 9.367187,-5.449219 2.367187,-2.449219 3.550781,-5.746093 3.550781,-9.894531 0,-3.253906 -0.675781,-5.859375 -2.03125,-7.8125 -1.375,-1.980469 -3.15625,-3.519531 -5.339844,-4.609375 -2.277343,-1.140625 -4.679687,-2.046875 -7.210937,-2.71875 -2.585937,-0.691406 -5.042969,-1.316406 -7.371094,-1.875 -2.425781,-0.585937 -4.417969,-1.335937 -5.96875,-2.25 -1.792969,-1.050781 -2.6875,-2.585937 -2.6875,-4.597656 0,-1.324219 0.425781,-2.609375 1.273438,-3.855469 0.925781,-1.363281 2.730469,-2.046875 5.40625,-2.046875 2.574219,0 4.6875,0.703125 6.339843,2.113281 1.53125,1.308594 2.882813,2.792969 4.054688,4.460938 1.082031,1.539062 2.289062,2.914062 3.617188,4.117187 1.199218,1.085938 2.796874,1.628907 4.796874,1.628907 1.207032,0 2.257813,-0.425782 3.152344,-1.285157 0.878906,-0.84375 1.320313,-1.863281 1.320313,-3.058593 0,-2.644532 -1.054688,-4.886719 -3.167969,-6.722657 -2.222656,-1.9375 -5.164062,-3.402343 -8.824219,-4.402343 -3.722656,-1.011719 -7.742187,-1.519532 -12.066406,-1.519532 -1.597656,0 -3.652344,0.167969 -6.160156,0.507813 -2.460938,0.335937 -4.949219,1.046875 -7.460938,2.136719 -2.4375,1.054687 -4.46875,2.660156 -6.09375,4.816406 -1.597656,2.117187 -2.398437,4.96875 -2.398437,8.554687 0,3.171875 0.699218,5.777344 2.097656,7.816407 1.433594,2.085937 3.253906,3.785156 5.46875,5.097656 2.277344,1.347656 4.703125,2.464844 7.277344,3.351562 2.628906,0.90625 5.105468,1.722656 7.433594,2.457032 2.398437,0.753906 4.386718,1.582031 5.960937,2.484374 1.839844,1.050782 2.757813,2.453126 2.757813,4.214844 0,2.183594 -0.859376,3.589844 -2.582032,4.21875 -1.40625,0.515625 -3.289062,0.773438 -5.652344,0.773438 -3.144531,0 -5.664062,-0.664063 -7.5625,-1.992188 -1.816406,-1.273437 -3.320312,-2.730468 -4.507812,-4.375 -1.109375,-1.535156 -2.171875,-2.898437 -3.195312,-4.085937 -0.84375,-0.984375 -1.9375,-1.476563 -3.28125,-1.476563 -1.625,0 -2.839844,0.417969 -3.640626,1.253906 -0.816406,0.851563 -1.222656,2.011719 -1.222656,3.480469 z m 0,0"
             id="path8" />
        </g>
      </g>
    </g>
    <g
       fill="#000000"
       fill-opacity="1"
       id="g14"
       transform="translate(6.0199631)">
      <g
         transform="translate(243.89949,99.739273)"
         id="g13">
        <g
           id="g12">
          <path
             d="m 16.472656,0.972656 c -1.25,0 -2.738281,0.125 -4.464844,0.378906 C 10.1875,1.617188 8.476562,1.75 6.875,1.75 5.269531,1.75 3.90625,1.507812 2.789062,1.023438 1.40625,0.417969 0.714844,-0.742188 0.714844,-2.464844 c 0,-1.203125 0.300781,-2.132812 0.898437,-2.792968 0.421875,-0.464844 0.929688,-1.058594 1.527344,-1.78125 0.515625,-0.628907 0.972656,-1.65625 1.371094,-3.078126 0.40625,-1.472656 0.609375,-3.675781 0.609375,-6.613281 0,-3.984375 0.023437,-6.867187 0.066406,-8.648437 0.042969,-1.765625 0.066406,-3.054688 0.066406,-3.867188 v -2.789062 c 0,-2.105469 -0.296875,-3.523438 -0.886718,-4.25 C 3.6875,-37.125 3.019531,-37.777344 2.355469,-38.246094 1.347656,-38.957031 0.84375,-40.042969 0.84375,-41.503906 c 0,-1.679688 0.597656,-2.851563 1.800781,-3.511719 0.945313,-0.519531 2.265625,-0.964844 3.960938,-1.328125 1.558593,-0.339844 3.445312,-0.890625 5.65625,-1.65625 l 0.320312,0.917969 -0.34375,-0.910157 c 2.671875,-1 4.488281,-1.878906 5.445313,-2.640624 1.007812,-0.796876 1.757812,-1.441407 2.25,-1.933594 0.710937,-0.710938 1.761718,-1.0625 3.152344,-1.0625 2.007812,0 3.347656,0.902344 4.023437,2.707031 0.558594,1.492187 0.839844,3.25 0.839844,5.269531 v 28.921875 c 0,2.9375 0.203125,5.140625 0.613281,6.613281 0.394531,1.421876 0.851562,2.449219 1.371094,3.078126 0.59375,0.722656 1.101562,1.316406 1.523437,1.78125 0.601563,0.660156 0.902344,1.589843 0.902344,2.792968 0,1.722656 -0.691406,2.882813 -2.078125,3.488282 C 29.164062,1.507812 27.804688,1.75 26.199219,1.75 24.507812,1.75 22.753906,1.617188 20.933594,1.351562 19.210938,1.097656 17.722656,0.972656 16.472656,0.972656 Z m 0,-1.945312 c 1.34375,0 2.925782,0.132812 4.742188,0.398437 1.726562,0.253907 3.386718,0.378907 4.984375,0.378907 1.335937,0 2.4375,-0.1875 3.308593,-0.566407 0.605469,-0.261719 0.90625,-0.832031 0.90625,-1.703125 0,-0.699218 -0.132812,-1.195312 -0.394531,-1.484375 C 29.574219,-4.4375 29.046875,-5.054688 28.429688,-5.800781 27.738281,-6.644531 27.15625,-7.90625 26.6875,-9.597656 c -0.457031,-1.640625 -0.683594,-4.019532 -0.683594,-7.132813 v -28.921875 c 0,-1.785156 -0.238281,-3.316406 -0.714844,-4.589844 -0.363281,-0.960937 -1.097656,-1.441406 -2.203124,-1.441406 -0.855469,0 -1.449219,0.164063 -1.777344,0.492188 -0.542969,0.546875 -1.351563,1.242187 -2.417969,2.085937 -1.117187,0.882813 -3.105469,1.863281 -5.96875,2.9375 l -0.02344,0.0078 c -2.285157,0.789062 -4.246094,1.363281 -5.882813,1.71875 -1.507813,0.324218 -2.652344,0.703125 -3.433594,1.132812 -0.527343,0.289063 -0.792969,0.890625 -0.792969,1.804688 0,0.789062 0.230469,1.34375 0.691407,1.671875 0.808593,0.570312 1.605469,1.34375 2.398437,2.320312 0.878906,1.085938 1.320313,2.914063 1.320313,5.476563 v 2.789062 c 0,0.828125 -0.023438,2.132813 -0.066407,3.914063 -0.042968,1.765625 -0.0625,4.632812 -0.0625,8.601562 0,3.113281 -0.230468,5.492188 -0.6875,7.132813 -0.46875,1.691406 -1.046874,2.953125 -1.742187,3.796875 -0.613281,0.746093 -1.144531,1.363281 -1.585937,1.851562 -0.265626,0.289063 -0.394532,0.785157 -0.394532,1.484375 0,0.871094 0.300782,1.441406 0.90625,1.703125 0.871094,0.378907 1.972656,0.566407 3.308594,0.566407 1.507812,0 3.125,-0.125 4.851562,-0.378907 1.820313,-0.265625 3.402344,-0.398437 4.746094,-0.398437 z M 0.761719,-55.980469 c -0.957031,-2.875 -0.472657,-5.949219 1.445312,-9.230469 1.867188,-3.1875 4.699219,-5.773437 8.496094,-7.761718 3.167969,-1.632813 6.085937,-2.445313 8.75,-2.445313 4.261719,0 7.03125,1.769531 8.308594,5.308594 1.054687,2.972656 0.617187,6.0625 -1.3125,9.265625 -1.863281,3.089844 -4.6875,5.671875 -8.472657,7.742188 l -0.03125,0.01562 c -3.25,1.625 -6.207031,2.4375 -8.867187,2.4375 -4.160156,0 -6.925781,-1.761718 -8.296875,-5.289062 l -0.011719,-0.01953 z m 1.847656,-0.617187 -0.921875,0.308594 0.90625,-0.351563 c 1.046875,2.699219 3.210938,4.046875 6.484375,4.046875 2.355469,0 5.019531,-0.742188 7.996094,-2.230469 l 0.433593,0.871094 -0.464843,-0.855469 c 3.476562,-1.902344 6.058593,-4.25 7.738281,-7.039062 1.613281,-2.679688 2,-5.210938 1.152344,-7.597656 -0.96875,-2.6875 -3.128906,-4.027344 -6.480469,-4.027344 -2.347656,0 -4.964844,0.738281 -7.847656,2.222656 -3.46875,1.816406 -6.039063,4.15625 -7.71875,7.023438 -1.625,2.773437 -2.050781,5.316406 -1.277344,7.628906 z m 0,0"
             id="path11" />
        </g>
      </g>
    </g>
    <g
       fill="#000000"
       fill-opacity="1"
       id="g17"
       transform="translate(6.0199631)">
      <g
         transform="translate(272.30166,99.739273)"
         id="g16">
        <g
           id="g15">
          <path
             d="m 0.324219,-48.765625 c 0,-1.699219 0.613281,-2.851563 1.835937,-3.464844 0.917969,-0.460937 2.1875,-0.914062 3.804688,-1.363281 1.464844,-0.40625 3.195312,-1.234375 5.191406,-2.480469 2.667969,-1.667969 4.570312,-3.253906 5.707031,-4.757812 1.203125,-1.589844 2.144531,-2.875 2.832031,-3.859375 0.882813,-1.273438 2.058594,-1.910156 3.519532,-1.910156 1.015625,0 1.84375,0.273437 2.488281,0.8125 0.644531,0.535156 1.0625,1.308593 1.257813,2.3125 0.3125,1.617187 0.46875,3.40625 0.46875,5.371093 v 4.800781 c 0,0.207032 0.02344,0.332032 0.07422,0.382813 0.04687,0.04687 0.175782,0.07031 0.382813,0.07031 h 2.074219 c 1.347656,0 2.386718,0.363281 3.117187,1.09375 0.730469,0.730468 1.097656,1.773437 1.097656,3.121093 0,1.386719 -0.359375,2.453125 -1.082031,3.203125 -0.730469,0.761719 -1.777344,1.140625 -3.132812,1.140625 h -2.074219 c -0.207031,0 -0.335938,0.02344 -0.382813,0.07422 -0.05078,0.04687 -0.07422,0.175781 -0.07422,0.382812 v 15.171876 c 0,5.519531 0.06641,9.523437 0.195312,12.011718 0.117188,2.257813 0.691406,3.90625 1.726562,4.941406 l -0.6875,0.6875 0.644532,-0.726562 c 0.679687,0.601562 1.214844,0.96875 1.609375,1.101562 0.664062,0.21875 1.179687,0.515626 1.546875,0.882813 0.449218,0.449219 0.671875,1.28125 0.671875,2.503906 0,1.910157 -1.023438,3.890625 -3.074219,5.9375 C 28.015625,0.726562 24.523438,1.75 19.585938,1.75 13.734375,1.75 9.746094,-0.398438 7.625,-4.691406 5.609375,-8.761719 4.605469,-14.027344 4.605469,-20.492188 l 0.128906,-18.8125 c 0,-2.101562 -0.296875,-3.515624 -0.886719,-4.246093 C 3.167969,-44.386719 2.5,-45.039062 1.839844,-45.507812 0.828125,-46.21875 0.324219,-47.304688 0.324219,-48.765625 Z m 1.945312,0 c 0,0.789063 0.230469,1.34375 0.691407,1.667969 0.808593,0.570312 1.609374,1.347656 2.398437,2.324218 0.878906,1.085938 1.320313,2.914063 1.320313,5.480469 l -0.128907,18.800781 c 0,6.160157 0.9375,11.140626 2.816407,14.9375 1.765624,3.574219 5.171874,5.359376 10.21875,5.359376 4.398437,0 7.433593,-0.832032 9.101562,-2.503907 1.671875,-1.667969 2.503906,-3.191406 2.503906,-4.5625 0,-0.40625 -0.02344,-0.730469 -0.07422,-0.964843 -0.01953,-0.082032 -0.03906,-0.148438 -0.05859,-0.195313 0,0 0.01172,0.011719 0.03125,0.03125 -0.152344,-0.152344 -0.414063,-0.289063 -0.789063,-0.414063 -0.644531,-0.214843 -1.40625,-0.710937 -2.285156,-1.492187 l -0.03906,-0.03906 c -1.386718,-1.386718 -2.152343,-3.457031 -2.296874,-6.214843 -0.128907,-2.523438 -0.195313,-6.5625 -0.195313,-12.113281 v -15.171876 c 0,-0.746093 0.214844,-1.332031 0.644531,-1.757812 0.425782,-0.429688 1.011719,-0.644531 1.757813,-0.644531 h 2.074219 c 0.804687,0 1.378906,-0.179688 1.730468,-0.542969 0.359375,-0.375 0.539063,-0.992188 0.539063,-1.855469 0,-0.8125 -0.175781,-1.394531 -0.527344,-1.742187 -0.347656,-0.351563 -0.929687,-0.527344 -1.742187,-0.527344 h -2.074219 c -0.746094,0 -1.332031,-0.214844 -1.757813,-0.640625 -0.429687,-0.429687 -0.644531,-1.015625 -0.644531,-1.757813 v -4.800781 c 0,-1.839843 -0.144531,-3.507812 -0.433594,-5 -0.109375,-0.554687 -0.304687,-0.949219 -0.59375,-1.191406 -0.285156,-0.238281 -0.699219,-0.355469 -1.242187,-0.355469 -0.785156,0 -1.425782,0.355469 -1.925782,1.074219 -0.699218,1.003906 -1.65625,2.3125 -2.875,3.921875 -1.28125,1.695312 -3.359374,3.4375 -6.226562,5.230469 -2.152344,1.347656 -4.054688,2.25 -5.703125,2.707031 -1.496094,0.414062 -2.648437,0.824219 -3.457031,1.230469 -0.503906,0.25 -0.757813,0.824219 -0.757813,1.722656 z m 0,0"
             id="path14" />
        </g>
      </g>
    </g>
    <g
       fill="#cb2d32"
       fill-opacity="1"
       id="g20"
       transform="translate(6.0199631)">
      <g
         transform="translate(36.264214,99.739273)"
         id="g19">
        <g
           id="g18">
          <path
             d="M 16.734375,0 C 15.429688,0 13.894531,0.128906 12.125,0.390625 10.351562,0.648438 8.691406,0.78125 7.140625,0.78125 5.660156,0.78125 4.425781,0.5625 3.4375,0.125 2.445312,-0.300781 1.953125,-1.164062 1.953125,-2.46875 c 0,-0.945312 0.210937,-1.65625 0.640625,-2.125 0.4375,-0.476562 0.957031,-1.082031 1.5625,-1.8125 0.601562,-0.738281 1.117188,-1.882812 1.546875,-3.4375 0.4375,-1.5625 0.65625,-3.859375 0.65625,-6.890625 0,-3.976563 0.019531,-6.851563 0.0625,-8.625 0.039063,-1.769531 0.0625,-3.066406 0.0625,-3.890625 0,-0.820312 0,-1.75 0,-2.78125 0,-2.332031 -0.371094,-3.953125 -1.109375,-4.859375 C 4.644531,-37.804688 3.910156,-38.519531 3.171875,-39.03125 2.441406,-39.550781 2.078125,-40.375 2.078125,-41.5 c 0,-1.300781 0.429687,-2.1875 1.296875,-2.65625 0.863281,-0.476562 2.09375,-0.890625 3.6875,-1.234375 1.601562,-0.351563 3.53125,-0.914063 5.78125,-1.6875 2.757812,-1.039063 4.660156,-1.972656 5.703125,-2.796875 1.039063,-0.820312 1.816406,-1.488281 2.328125,-2 0.519531,-0.519531 1.34375,-0.78125 2.46875,-0.78125 1.5625,0 2.597656,0.695312 3.109375,2.078125 0.519531,1.375 0.78125,3.015625 0.78125,4.921875 v 1.03125 c 0,1.21875 0.21875,1.828125 0.65625,1.828125 0.425781,0 1.113281,-0.492187 2.0625,-1.484375 0.957031,-1 2.191406,-2.144531 3.703125,-3.4375 1.507812,-1.300781 3.320312,-2.445312 5.4375,-3.4375 2.125,-1 4.523438,-1.5 7.203125,-1.5 2.6875,0 4.894531,0.5 6.625,1.5 1.726563,0.992188 3.085937,2.136719 4.078125,3.4375 1,1.292969 1.800781,2.4375 2.40625,3.4375 0.601562,0.992188 1.078125,1.484375 1.421875,1.484375 0.601563,0 1.378906,-0.472656 2.328125,-1.421875 0.957031,-0.957031 2.171875,-2.101562 3.640625,-3.4375 1.46875,-1.34375 3.257813,-2.507812 5.375,-3.5 2.125,-1 4.65625,-1.5 7.59375,-1.5 4.0625,0 7.128906,0.867188 9.203125,2.59375 2.082031,1.730469 3.488281,3.890625 4.21875,6.484375 0.738281,2.59375 1.109375,5.230469 1.109375,7.90625 v 18.9375 c 0,3.03125 0.210937,5.328125 0.640625,6.890625 0.4375,1.554688 0.9375,2.699219 1.5,3.4375 0.5625,0.730469 1.078125,1.335938 1.546875,1.8125 0.476563,0.46875 0.71875,1.179688 0.71875,2.125 0,1.304688 -0.371094,2.167969 -1.109375,2.59375 -0.730469,0.4375 -1.699219,0.65625 -2.90625,0.65625 -1.210938,0 -2.617188,-0.132812 -4.21875,-0.390625 C 88.863281,0.128906 87.328125,0 85.859375,0 84.472656,0 83.285156,0.0625 82.296875,0.1875 81.304688,0.320312 80.25,0.476562 79.125,0.65625 77.394531,0.820312 75.988281,0.429688 74.90625,-0.515625 c -1.085938,-0.957031 -1.625,-2.300781 -1.625,-4.03125 V -25.8125 c 0,-4.144531 -0.414062,-7.296875 -1.234375,-9.453125 -0.824219,-2.164063 -2.355469,-3.25 -4.59375,-3.25 -1.824219,0 -3.386719,0.804687 -4.6875,2.40625 -1.292969,1.59375 -1.9375,4.8125 -1.9375,9.65625 v 9.71875 c 0,3.03125 0.210937,5.328125 0.640625,6.890625 0.4375,1.554688 0.957031,2.699219 1.5625,3.4375 0.601562,0.730469 1.117188,1.335938 1.546875,1.8125 0.4375,0.46875 0.65625,1.179688 0.65625,2.125 0,1.304688 -0.371094,2.167969 -1.109375,2.59375 C 63.394531,0.5625 62.425781,0.78125 61.21875,0.78125 60.007812,0.78125 58.601562,0.648438 57,0.390625 55.40625,0.128906 53.875,0 52.40625,0 51.019531,0 49.828125,0.0625 48.828125,0.1875 47.835938,0.320312 46.78125,0.476562 45.65625,0.65625 43.925781,0.820312 42.519531,0.429688 41.4375,-0.515625 c -1.085938,-0.957031 -1.625,-2.300781 -1.625,-4.03125 V -25.8125 c 0,-4.144531 -0.433594,-7.296875 -1.296875,-9.453125 -0.867187,-2.164063 -2.417969,-3.25 -4.65625,-3.25 -1.992187,0 -3.59375,1.015625 -4.8125,3.046875 -1.210937,2.03125 -1.8125,6.203125 -1.8125,12.515625 v 6.21875 c 0,3.03125 0.210937,5.328125 0.640625,6.890625 0.4375,1.554688 0.957031,2.699219 1.5625,3.4375 0.601562,0.730469 1.117188,1.335938 1.546875,1.8125 0.4375,0.46875 0.65625,1.179688 0.65625,2.125 0,1.304688 -0.496094,2.167969 -1.484375,2.59375 -0.992188,0.4375 -2.226562,0.65625 -3.703125,0.65625 -1.636719,0 -3.34375,-0.132812 -5.125,-0.390625 C 19.554688,0.128906 18.023438,0 16.734375,0 Z m 0,0"
             id="path17" />
        </g>
      </g>
    </g>
    <g
       fill="#cb2d32"
       fill-opacity="1"
       id="g23"
       transform="translate(6.0199631)">
      <g
         transform="translate(132.75439,99.739273)"
         id="g22">
        <g
           id="g21">
          <path
             d="m 1.296875,-41.5 c 0,-1.300781 0.429687,-2.1875 1.296875,-2.65625 0.863281,-0.476562 2.09375,-0.890625 3.6875,-1.234375 1.601562,-0.351563 3.53125,-0.914063 5.78125,-1.6875 2.769531,-1.039063 4.671875,-1.972656 5.703125,-2.796875 1.039063,-0.820312 1.816406,-1.488281 2.328125,-2 0.519531,-0.519531 1.34375,-0.78125 2.46875,-0.78125 1.5625,0 2.597656,0.695312 3.109375,2.078125 0.519531,1.375 0.78125,3.015625 0.78125,4.921875 0.09375,2.679688 0.160156,4.859375 0.203125,6.546875 0.03906,1.6875 0.0625,3.871094 0.0625,6.546875 v 6.359375 c 0,5.449219 0.472656,9.148437 1.421875,11.09375 0.957031,1.949219 2.429687,2.921875 4.421875,2.921875 1.976562,0 3.398438,-0.972656 4.265625,-2.921875 0.863281,-1.945313 1.296875,-5.6875 1.296875,-11.21875 V -32.5625 c 0,-2.15625 -0.371094,-3.664062 -1.109375,-4.53125 -0.730469,-0.863281 -1.464844,-1.554688 -2.203125,-2.078125 -0.730469,-0.519531 -1.09375,-1.296875 -1.09375,-2.328125 0,-1.300781 0.429688,-2.1875 1.296875,-2.65625 0.863281,-0.476562 2.09375,-0.890625 3.6875,-1.234375 1.601563,-0.351563 3.53125,-0.914063 5.78125,-1.6875 2.769531,-1.039063 4.671875,-1.972656 5.703125,-2.796875 1.039062,-0.820312 1.820312,-1.488281 2.34375,-2 0.519531,-0.519531 1.34375,-0.78125 2.46875,-0.78125 1.550781,0 2.585938,0.695312 3.109375,2.078125 0.519531,1.375 0.78125,3.015625 0.78125,4.921875 l 0.125,10.5 c 0,3.898438 0.01953,7.011719 0.0625,9.34375 0.03906,2.335938 0.0625,4.195312 0.0625,5.578125 0,1.386719 0,2.59375 0,3.625 0,3.03125 0.210937,5.328125 0.640625,6.890625 0.4375,1.554688 0.957031,2.699219 1.5625,3.4375 0.601562,0.730469 1.117188,1.335938 1.546875,1.8125 0.4375,0.46875 0.65625,1.183594 0.65625,2.140625 0,1.292969 -0.371094,2.152344 -1.109375,2.578125 -0.730469,0.4375 -1.699219,0.65625 -2.90625,0.65625 -1.210938,0 -2.617188,-0.132812 -4.21875,-0.390625 C 53.71875,0.253906 52.1875,0.125 50.71875,0.125 49.332031,0.125 48.140625,0.1875 47.140625,0.3125 46.148438,0.445312 45.09375,0.601562 43.96875,0.78125 42.320312,0.945312 40.976562,0.644531 39.9375,-0.125 38.90625,-0.90625 38.300781,-2.03125 38.125,-3.5 c -0.34375,-2.59375 -0.730469,-3.890625 -1.15625,-3.890625 -0.4375,0 -1.523438,0.90625 -3.25,2.71875 -1.386719,1.46875 -3.398438,2.746094 -6.03125,3.828125 -2.636719,1.082031 -5.121094,1.625 -7.453125,1.625 -3.980469,0 -7.03125,-0.8632812 -9.15625,-2.59375 -2.117187,-1.726562 -3.542969,-3.890625 -4.28125,-6.484375 -0.730469,-2.59375 -1.09375,-5.234375 -1.09375,-7.921875 v -15.8125 c 0,-2.332031 -0.371094,-3.953125 -1.109375,-4.859375 C 3.863281,-37.804688 3.128906,-38.519531 2.390625,-39.03125 1.660156,-39.550781 1.296875,-40.375 1.296875,-41.5 Z m 0,0"
             id="path20" />
        </g>
      </g>
    </g>
    <g
       fill="#cb2d32"
       fill-opacity="1"
       id="g26"
       transform="translate(6.0199631)">
      <g
         transform="translate(193.44974,99.739273)"
         id="g25">
        <g
           id="g24">
          <path
             d="m 2.59375,-12.453125 c 0,-1.726563 0.492188,-3.109375 1.484375,-4.140625 1,-1.039062 2.453125,-1.5625 4.359375,-1.5625 1.632812,0 2.972656,0.605469 4.015625,1.8125 1.039063,1.210938 2.117187,2.59375 3.234375,4.15625 1.125,1.554688 2.550781,2.9375 4.28125,4.15625 1.726562,1.210938 4.066406,1.8125 7.015625,1.8125 2.238281,0 4.003906,-0.238281 5.296875,-0.71875 1.300781,-0.476562 1.953125,-1.582031 1.953125,-3.3125 0,-1.382812 -0.757813,-2.507812 -2.265625,-3.375 -1.511719,-0.863281 -3.433594,-1.660156 -5.765625,-2.390625 -2.335937,-0.738281 -4.824219,-1.5625 -7.46875,-2.46875 -2.636719,-0.90625 -5.121094,-2.050781 -7.453125,-3.4375 -2.335938,-1.382813 -4.257812,-3.175781 -5.765625,-5.375 -1.511719,-2.207031 -2.265625,-5 -2.265625,-8.375 0,-3.800781 0.863281,-6.847656 2.59375,-9.140625 1.726562,-2.289062 3.890625,-4 6.484375,-5.125 2.59375,-1.125 5.160156,-1.859375 7.703125,-2.203125 2.550781,-0.34375 4.648438,-0.515625 6.296875,-0.515625 4.40625,0 8.507813,0.523438 12.3125,1.5625 3.8125,1.03125 6.882813,2.5625 9.21875,4.59375 2.332031,2.03125 3.5,4.515625 3.5,7.453125 0,1.480469 -0.542969,2.742187 -1.625,3.78125 -1.074219,1.03125 -2.34375,1.546875 -3.8125,1.546875 -2.25,0 -4.070313,-0.625 -5.453125,-1.875 -1.386719,-1.257812 -2.640625,-2.6875 -3.765625,-4.28125 -1.125,-1.601562 -2.421875,-3.03125 -3.890625,-4.28125 -1.46875,-1.257812 -3.371094,-1.890625 -5.703125,-1.890625 -2.335937,0 -3.871094,0.542969 -4.609375,1.625 -0.730469,1.085937 -1.09375,2.1875 -1.09375,3.3125 0,1.636719 0.734375,2.886719 2.203125,3.75 1.46875,0.867187 3.367187,1.578125 5.703125,2.140625 2.332031,0.5625 4.796875,1.195312 7.390625,1.890625 2.59375,0.6875 5.054687,1.617187 7.390625,2.78125 2.332031,1.167969 4.234375,2.8125 5.703125,4.9375 1.476563,2.117187 2.21875,4.902344 2.21875,8.359375 0,4.40625 -1.277344,7.933594 -3.828125,10.578125 -2.554688,2.636719 -5.820312,4.539063 -9.796875,5.703125 -3.980469,1.164062 -8.171875,1.75 -12.578125,1.75 C 24,0.78125 21.796875,0.5625 19.203125,0.125 16.609375,-0.300781 14.035156,-1.007812 11.484375,-2 8.929688,-3 6.8125,-4.34375 5.125,-6.03125 3.4375,-7.71875 2.59375,-9.859375 2.59375,-12.453125 Z m 0,0"
             id="path23" />
        </g>
      </g>
    </g>
    <g
       fill="#cb2d32"
       fill-opacity="1"
       id="g29"
       transform="translate(6.0199631)">
      <g
         transform="translate(243.89949,99.739273)"
         id="g28">
        <g
           id="g27">
          <path
             d="M 16.46875,0 C 15.175781,0 13.640625,0.128906 11.859375,0.390625 10.085938,0.648438 8.425781,0.78125 6.875,0.78125 5.40625,0.78125 4.171875,0.5625 3.171875,0.125 2.179688,-0.300781 1.6875,-1.164062 1.6875,-2.46875 c 0,-0.945312 0.210938,-1.65625 0.640625,-2.125 0.4375,-0.476562 0.957031,-1.082031 1.5625,-1.8125 0.601563,-0.738281 1.117187,-1.882812 1.546875,-3.4375 0.4375,-1.5625 0.65625,-3.859375 0.65625,-6.890625 0,-3.976563 0.019531,-6.851563 0.0625,-8.625 0.039062,-1.769531 0.0625,-3.066406 0.0625,-3.890625 0,-0.820312 0,-1.75 0,-2.78125 0,-2.332031 -0.371094,-3.953125 -1.109375,-4.859375 C 4.378906,-37.804688 3.644531,-38.519531 2.90625,-39.03125 2.175781,-39.550781 1.8125,-40.375 1.8125,-41.5 c 0,-1.300781 0.429688,-2.1875 1.296875,-2.65625 0.863281,-0.476562 2.09375,-0.890625 3.6875,-1.234375 1.601563,-0.351563 3.53125,-0.914063 5.78125,-1.6875 2.769531,-1.039063 4.671875,-1.972656 5.703125,-2.796875 1.039062,-0.820312 1.820312,-1.488281 2.34375,-2 0.519531,-0.519531 1.34375,-0.78125 2.46875,-0.78125 1.550781,0 2.585938,0.695312 3.109375,2.078125 0.519531,1.375 0.78125,3.015625 0.78125,4.921875 v 28.921875 c 0,3.03125 0.210937,5.328125 0.640625,6.890625 0.4375,1.554688 0.957031,2.699219 1.5625,3.4375 0.601562,0.730469 1.117188,1.335938 1.546875,1.8125 0.4375,0.46875 0.65625,1.179688 0.65625,2.125 0,1.304688 -0.5,2.167969 -1.5,2.59375 -0.992187,0.4375 -2.21875,0.65625 -3.6875,0.65625 -1.648437,0 -3.355469,-0.132812 -5.125,-0.390625 C 19.304688,0.128906 17.769531,0 16.46875,0 Z M 1.6875,-56.296875 c -0.867188,-2.59375 -0.414062,-5.398437 1.359375,-8.421875 1.769531,-3.03125 4.472656,-5.492188 8.109375,-7.390625 3.019531,-1.5625 5.785156,-2.34375 8.296875,-2.34375 3.800781,0 6.265625,1.558594 7.390625,4.671875 0.957031,2.679688 0.546875,5.492188 -1.234375,8.4375 -1.773437,2.9375 -4.46875,5.402344 -8.09375,7.390625 -3.117187,1.554687 -5.929687,2.328125 -8.4375,2.328125 -3.71875,0 -6.183594,-1.554688 -7.390625,-4.671875 z m 0,0"
             id="path26" />
        </g>
      </g>
    </g>
    <g
       fill="#cb2d32"
       fill-opacity="1"
       id="g32"
       transform="translate(6.0199631)">
      <g
         transform="translate(272.30166,99.739273)"
         id="g31">
        <g
           id="g30">
          <path
             d="m 1.296875,-48.765625 c 0,-1.300781 0.429687,-2.164063 1.296875,-2.59375 0.863281,-0.4375 2.070312,-0.867187 3.625,-1.296875 1.5625,-0.4375 3.378906,-1.300781 5.453125,-2.59375 2.769531,-1.726562 4.757813,-3.390625 5.96875,-4.984375 1.207031,-1.601563 2.15625,-2.898437 2.84375,-3.890625 0.695313,-1 1.609375,-1.5 2.734375,-1.5 1.550781,0 2.476562,0.78125 2.78125,2.34375 0.300781,1.554688 0.453125,3.277344 0.453125,5.171875 v 4.796875 c 0,0.960938 0.476563,1.4375 1.4375,1.4375 h 2.078125 c 2.15625,0 3.234375,1.078125 3.234375,3.234375 0,2.25 -1.078125,3.375 -3.234375,3.375 h -2.078125 c -0.960937,0 -1.4375,0.476563 -1.4375,1.421875 v 15.171875 c 0,5.542969 0.0625,9.570313 0.1875,12.078125 0.132813,2.5 0.8125,4.355469 2.03125,5.5625 0.769531,0.699219 1.414063,1.136719 1.9375,1.3125 0.519531,0.167969 0.910156,0.382812 1.171875,0.640625 0.257812,0.261719 0.390625,0.867187 0.390625,1.8125 0,1.648437 -0.933594,3.402344 -2.796875,5.265625 -1.855469,1.855469 -5.121094,2.78125 -9.796875,2.78125 -5.449219,0 -9.148437,-1.96875 -11.09375,-5.90625 -1.9375,-3.9375 -2.90625,-9.0625 -2.90625,-15.375 l 0.125,-18.796875 c 0,-2.332031 -0.371094,-3.953125 -1.109375,-4.859375 -0.730469,-0.914062 -1.464844,-1.628906 -2.203125,-2.140625 -0.730469,-0.519531 -1.09375,-1.34375 -1.09375,-2.46875 z m 0,0"
             id="path29" />
        </g>
      </g>
    </g>
    <path
       fill="#000000"
       d="m 458.28168,14.609375 c 8.41016,-1.144531 7.27735,5.640625 7.22656,13.226563 l -0.0469,41.140624 c 0.004,4.886719 0.72656,15.320313 -1.5,18.847657 -2.82422,4.480469 -11.02734,2.410156 -16.62891,1.558593 l -62.65625,-9.34375 c -3.64453,-0.546874 -5.54687,-0.515624 -7.05078,-3.316406 -1.37109,-2.550781 -0.72656,-15.90625 -0.72656,-19.820312 0,-4.113282 -0.57422,-17.285156 0.62891,-20.164063 1.11328,-2.664062 2.95703,-3.953125 5.76562,-4.589843 l 66.71094,-15.640626 c 2.61719,-0.617187 5.60547,-1.53125 8.27734,-1.898437 z m -40.86328,75.320313 0.004,5.640624 c -4.91016,0.04688 -9.01172,-0.132812 -13.8711,0.671876 -3.21093,0.535156 -10.67968,2.71875 -6.05078,5.960942 7.69922,5.39843 27.41016,6.82031 37.66406,5.61328 2.85157,-0.33203 10.60938,-1.48438 9.32422,-4.96094 -0.79297,-2.14453 -6.73437,-4.062501 -9.73828,-4.847658 -1.96094,-0.511718 -4.04297,-0.914062 -6.1289,-1.261718 -1.47266,-0.242188 -5.33594,-0.53125 -6.48047,-0.917969 L 422.03559,90.625 c 6.57422,0.714844 13.54687,1.996094 20.11328,2.976562 9.19141,1.375 22.34375,5.214844 27.77734,-2.546874 l 0.73047,-0.777344 c 1.44141,-0.863282 3.21485,-4.339844 3.61719,-5.941406 0.98047,-3.867188 0.38281,-17.824219 0.38281,-22.75 0,-7.71875 0,-15.4375 0,-23.15625 0,-11.144532 1.5586,-32.429688 -16.87109,-28.710938 -6.13672,1.238281 -12.5625,3.003906 -18.7461,4.4375 l -56.13671,13.175781 c -6.46875,1.585938 -9.41016,7.539063 -9.39063,13.804688 0.0117,4.136719 -0.28125,31.949219 0.17188,34.621093 1.73828,10.324219 12.875,9.558594 23.58203,11.148438 6.67187,0.988281 13.5625,1.859375 20.15234,3.023438 z m 0,0"
       fill-opacity="1"
       fill-rule="evenodd"
       id="path32" />
    <g
       clip-path="url(#65ce2266b9)"
       id="g33"
       transform="translate(6.0199631)">
      <path
         fill="#000000"
         d="m 334.71094,69.167969 c 3.46093,-1.738281 4.74218,4.515625 1.9414,5.949219 -3.0625,1.5625 -4.86328,-4.480469 -1.9414,-5.949219 z m -7.23438,-27.785157 c 0.79297,-0.476562 3.17969,-0.851562 4.21485,-1.070312 l 12.74218,-2.621094 -0.0937,5.007813 -16.8789,2.652343 z m -1.96875,-16.011718 v 75.933596 c 4.46485,0.46094 9.70313,1.58984 14.20313,2.34375 8.66406,1.44922 7.25,2.03515 13.1875,-0.25391 6.99609,-2.69531 17.45312,-7.039061 23.97265,-9.285155 l -0.004,-5.683594 -2.34766,0.0039 c 0.0117,5.519531 1.11719,3.753906 -6.36328,6.796874 l -19.67969,7.820315 V 21.847656 l 20.50781,6.757813 1.10938,-1.507813 c -0.87891,-0.5625 -20.08984,-7.277344 -21.43359,-7.464844 -0.8086,-0.113281 -9.9961,2.234376 -11.63282,2.636719 -1.21484,0.300781 -10.88672,2.199219 -11.51953,3.101563 z m 0,0"
         fill-opacity="1"
         fill-rule="evenodd"
         id="path33" />
    </g>
    <path
       fill="#000000"
       d="m 388.59809,131.30078 c 1.62109,-1.95312 -0.81641,-7.61719 -3.21094,-10.10547 -3.51562,-3.66015 -15.37109,-8.84375 -19.71484,-4.64843 -2.22266,2.14062 -4.26953,4.28906 -5.73047,7.82421 -0.83594,2.02344 -1.80469,7.00782 -0.39844,8.83594 1.92969,2.51953 3.42188,6.32422 10.33594,6.67188 7.36328,0.37109 14.49609,-3.48438 18.71875,-8.57813 z m 0,0"
       fill-opacity="1"
       fill-rule="evenodd"
       id="path34" />
    <path
       fill="#000000"
       d="m 384.60199,92.132812 c 0.23438,1.039063 0.8086,0.78125 2.01954,0.984376 1.83984,0.308593 6.35937,1.011718 7.35156,2.214843 -2.19141,2.589844 -15.61328,4.523438 -18.91797,7.820309 -0.0508,2.16797 1.5625,2.38672 3.65234,2.78907 4.3086,0.83593 13.54688,1.69531 15.67578,4.41797 -0.34765,1.34375 -1.35156,1.78906 -2.50781,2.54296 -2.58203,1.67969 -1.44922,0.11329 -3.32031,0.60547 -1.12891,0.29688 -5.65234,2.3125 -6.75781,2.92188 4.74609,3.46094 7.03906,4.53906 9.08593,11.57812 3.33204,-3.7539 1.67188,-9.07031 0.48047,-12.68359 4.67969,-2.15625 7.84375,-6.08203 0.7461,-8.48047 -4.63672,-1.56641 -9.88672,-2.00781 -14.67188,-3.07031 0.0469,-0.0469 0.125,-0.17969 0.15235,-0.13281 l 1.53125,-0.76954 c 0.71484,-0.26562 1.30468,-0.47265 2.0039,-0.70312 2.41406,-0.78906 21.58985,-5.652345 12.42578,-8.832032 -1.26172,-0.441407 -2.76562,-0.765626 -4.17578,-1.011719 z m 0,0"
       fill-opacity="1"
       fill-rule="evenodd"
       id="path35" />
    <path
       fill="#000000"
       d="m 371.4809,113.07031 c 0.51172,0.28907 7.69141,2.35547 8.24219,2.35547 1.08984,-0.004 6.14062,-2.74609 7.35156,-3.33594 -2.80078,-2.32421 -13.10937,-1.16796 -15.59375,0.98047 z m 0,0"
       fill-opacity="1"
       fill-rule="evenodd"
       id="path36" />
    <g
       transform="translate(389.01996,11)"
       id="g56">
      <g
         clip-path="url(#62ee3f70a3)"
         id="g55">
        <g
           fill="#df1c1c"
           fill-opacity="1"
           id="g39">
          <g
             transform="translate(6.038601,50.751732)"
             id="g38">
            <g
               id="g37">
              <path
                 d="m 9.796875,-7.171875 c 0.425781,-0.144531 0.789063,-0.066406 1.09375,0.234375 0.300781,0.304688 0.46875,0.671875 0.5,1.109375 0.03906,0.429687 -0.167969,0.730469 -0.625,0.90625 C 8.722656,-4.140625 6.882812,-3.101562 5.25,-1.8125 5.5,-1.03125 5.566406,-0.25 5.453125,0.53125 5.316406,1.382812 4.972656,2.238281 4.421875,3.09375 3.867188,3.957031 3.179688,4.550781 2.359375,4.875 1.535156,5.195312 0.675781,4.984375 -0.21875,4.234375 -1.175781,3.410156 -1.644531,2.539062 -1.625,1.625 c 0.011719,-0.90625 0.355469,-1.800781 1.03125,-2.6875 0.6757812,-0.894531 1.515625,-1.753906 2.515625,-2.578125 -0.386719,-0.46875 -0.789063,-0.90625 -1.203125,-1.3125 -0.40625,-0.40625 -0.7539062,-0.894531 -1.046875,-1.46875 -0.3125,-0.601563 -0.46875,-1.289063 -0.46875,-2.0625 0,-0.769531 0.203125,-1.410156 0.609375,-1.921875 0.40625,-0.519531 1.070312,-0.765625 2,-0.734375 0.394531,0.04297 0.769531,0.214844 1.125,0.515625 0.363281,0.304688 0.632812,0.632812 0.8125,0.984375 0.101562,0.25 0.144531,0.546875 0.125,0.890625 -0.011719,0.335938 -0.214844,0.5 -0.609375,0.5 -0.605469,-0.0625 -0.96875,0.078125 -1.09375,0.421875 -0.125,0.335937 -0.125,0.714844 0,1.140625 0.125,0.429688 0.289063,0.78125 0.5,1.0625 0.113281,0.148438 0.238281,0.292969 0.375,0.4375 0.144531,0.136719 0.269531,0.277344 0.375,0.421875 1.351563,-0.644531 2.609375,-1.144531 3.765625,-1.5 1.164062,-0.351563 2.035156,-0.65625 2.609375,-0.90625 z m 0,0"
                 id="path37" />
            </g>
          </g>
        </g>
        <g
           fill="#df1c1c"
           fill-opacity="1"
           id="g42">
          <g
             transform="translate(14.549807,50.751732)"
             id="g41">
            <g
               id="g40">
              <path
                 d="m 26.609375,-20.5625 c 0.320313,0.1875 0.648437,0.46875 0.984375,0.84375 0.34375,0.367188 0.492188,0.746094 0.453125,1.140625 -0.03125,0.398437 -0.195313,0.621094 -0.484375,0.671875 -0.28125,0.05469 -0.585938,-0.0078 -0.90625,-0.1875 -1.386719,-0.71875 -2.851562,-1.195312 -4.390625,-1.4375 -1.53125,-0.25 -3.0625,-0.429688 -4.59375,-0.546875 -3.042969,-0.175781 -6.09375,-0.242187 -9.15625,-0.203125 -0.042969,0 -0.085937,0 -0.125,0 -0.03125,0 -0.046875,0 -0.046875,0 -1.5625,3.460938 -2.996094,6.976562 -4.296875,10.546875 C 2.742188,-6.171875 1.707031,-2.550781 0.9375,1.125 0.164062,4.800781 -0.179688,8.546875 -0.109375,12.359375 c 0,0.4375 -0.140625,0.671875 -0.421875,0.703125 -0.289062,0.03125 -0.625,-0.07031 -1,-0.296875 C -1.90625,12.535156 -2.234375,12.25 -2.515625,11.90625 -2.796875,11.570312 -2.9375,11.242188 -2.9375,10.921875 -3.050781,5.492188 -2.359375,0.195312 -0.859375,-4.96875 c 1.5,-5.175781 3.320313,-10.226562 5.46875,-15.15625 -5.144531,0.28125 -10.234375,0.90625 -15.265625,1.875 -0.320312,0.07422 -0.671875,-0.01563 -1.046875,-0.265625 -0.375,-0.25 -0.691406,-0.550781 -0.953125,-0.90625 -0.269531,-0.363281 -0.421875,-0.707031 -0.453125,-1.03125 -0.03906,-0.320313 0.101563,-0.515625 0.421875,-0.578125 3.074219,-0.570312 6.164062,-1.035156 9.265625,-1.390625 3.105469,-0.363281 6.222656,-0.582031 9.359375,-0.65625 0.570312,-1.25 1.144531,-2.488281 1.71875,-3.71875 0.570312,-1.226563 1.160156,-2.445313 1.765625,-3.65625 0.144531,-0.320313 0.394531,-0.457031 0.75,-0.40625 0.351563,0.05469 0.707031,0.226563 1.0625,0.515625 0.363281,0.28125 0.640625,0.601562 0.828125,0.953125 0.195312,0.355469 0.226562,0.679687 0.09375,0.96875 -0.429688,0.886719 -0.851562,1.765625 -1.265625,2.640625 -0.40625,0.875 -0.824219,1.746094 -1.25,2.609375 1.882813,0 3.816406,0.03906 5.796875,0.109375 1.988281,0.0625 3.9375,0.28125 5.84375,0.65625 1.90625,0.375 3.679688,0.992188 5.328125,1.84375 z m 0,0"
                 id="path39" />
            </g>
          </g>
        </g>
        <g
           fill="#df1c1c"
           fill-opacity="1"
           id="g45">
          <g
             transform="translate(20.223821,50.751732)"
             id="g44">
            <g
               id="g43">
              <path
                 d="m 18.796875,-6.796875 c 0.3125,-0.320313 0.664063,-0.394531 1.0625,-0.21875 0.394531,0.179687 0.671875,0.464844 0.828125,0.859375 0.164062,0.398438 0.101562,0.757812 -0.1875,1.078125 -1.074219,1.105469 -2.164062,2.203125 -3.265625,3.296875 -1.105469,1.085938 -2.28125,2.035156 -3.53125,2.859375 -0.605469,0.425781 -1.230469,0.742187 -1.875,0.953125 C 11.179688,2.25 10.519531,2.144531 9.84375,1.71875 9.132812,1.289062 8.660156,0.726562 8.421875,0.03125 8.191406,-0.664062 8.132812,-1.40625 8.25,-2.1875 c 0,-0.039062 0,-0.078125 0,-0.109375 0,-0.039063 0.015625,-0.078125 0.046875,-0.109375 -0.855469,0.78125 -1.730469,1.53125 -2.625,2.25 C 4.785156,0.550781 3.84375,1.191406 2.84375,1.765625 1.945312,2.296875 1.039062,2.609375 0.125,2.703125 -0.78125,2.796875 -1.585938,2.359375 -2.296875,1.390625 -2.910156,0.566406 -3.125,-0.410156 -2.9375,-1.546875 -2.757812,-2.691406 -2.375,-3.800781 -1.78125,-4.875 c 0.585938,-1.070312 1.164062,-1.945312 1.734375,-2.625 0.207031,-0.25 0.5,-0.3125 0.875,-0.1875 0.375,0.125 0.722656,0.351562 1.046875,0.671875 0.320312,0.324219 0.550781,0.671875 0.6875,1.046875 0.144531,0.375 0.113281,0.6875 -0.09375,0.9375 C 2.070312,-4.570312 1.726562,-4.082031 1.4375,-3.5625 1.15625,-3.039062 0.910156,-2.515625 0.703125,-1.984375 0.453125,-1.441406 0.269531,-0.976562 0.15625,-0.59375 0.582031,-0.800781 1,-1.054688 1.40625,-1.359375 1.820312,-1.660156 2.226562,-1.957031 2.625,-2.25 c 1.320312,-1.03125 2.578125,-2.109375 3.765625,-3.234375 1.195313,-1.125 2.40625,-2.238281 3.625,-3.34375 0.351563,-0.320313 0.753906,-0.347656 1.203125,-0.078125 0.445312,0.261719 0.820312,0.625 1.125,1.09375 0.300781,0.460938 0.398438,0.871094 0.296875,1.234375 -0.21875,0.78125 -0.449219,1.570313 -0.6875,2.359375 -0.230469,0.78125 -0.433594,1.5625 -0.609375,2.34375 -0.03125,0.148438 -0.07031,0.308594 -0.109375,0.484375 0.75,-0.175781 1.601563,-0.585937 2.5625,-1.234375 0.96875,-0.644531 1.898437,-1.359375 2.796875,-2.140625 0.894531,-0.78125 1.628906,-1.457031 2.203125,-2.03125 z m 0,0"
                 id="path42" />
            </g>
          </g>
        </g>
        <g
           fill="#df1c1c"
           fill-opacity="1"
           id="g48">
          <g
             transform="translate(37.514281,50.751732)"
             id="g47">
            <g
               id="g46">
              <path
                 d="m 21.203125,-30.625 c 0.457031,0.148438 0.890625,0.453125 1.296875,0.921875 0.414062,0.460937 0.585938,0.886719 0.515625,1.28125 0,0.07422 -0.01563,0.148437 -0.04687,0.21875 -2.75,5.386719 -5.414062,10.804687 -7.984375,16.25 -2.5625,5.4375 -4.828125,11.011719 -6.796875,16.71875 C 8.082031,5.117188 7.859375,5.269531 7.515625,5.21875 7.179688,5.164062 6.832031,5.003906 6.46875,4.734375 6.113281,4.472656 5.828125,4.15625 5.609375,3.78125 5.398438,3.40625 5.347656,3.054688 5.453125,2.734375 5.847656,1.585938 6.25,0.4375 6.65625,-0.71875 7.070312,-1.882812 7.507812,-3.019531 7.96875,-4.125 6.613281,-2.695312 5.140625,-1.394531 3.546875,-0.21875 1.960938,0.957031 0.191406,1.90625 -1.765625,2.625 -2.117188,2.769531 -2.5,2.707031 -2.90625,2.4375 -3.320312,2.164062 -3.644531,1.816406 -3.875,1.390625 -4.113281,0.960938 -4.195312,0.570312 -4.125,0.21875 -3.769531,-1.382812 -3.160156,-2.945312 -2.296875,-4.46875 -1.441406,-5.988281 -0.351562,-7.25 0.96875,-8.25 c 0.925781,-0.707031 1.921875,-1.035156 2.984375,-0.984375 1.070313,0.054687 2.003906,0.4375 2.796875,1.15625 0.207031,-0.25 0.398438,-0.484375 0.578125,-0.703125 2.570313,-3.28125 4.890625,-6.75 6.953125,-10.40625 2.070312,-3.65625 4.039062,-7.34375 5.90625,-11.0625 0.03125,-0.03125 0.04687,-0.06641 0.04687,-0.109375 0.144531,-0.207031 0.359375,-0.3125 0.640625,-0.3125 0.101562,0 0.210938,0.01563 0.328125,0.04687 z M 0.21875,-1.921875 c 0.957031,-0.613281 1.863281,-1.300781 2.71875,-2.0625 0.863281,-0.769531 1.6875,-1.582031 2.46875,-2.4375 -0.074219,-0.039063 -0.125,-0.0625 -0.15625,-0.0625 -0.117188,0 -0.226562,0.011719 -0.328125,0.03125 C 4.816406,-6.429688 4.710938,-6.40625 4.609375,-6.375 4.316406,-6.300781 4.035156,-6.175781 3.765625,-6 c -0.261719,0.179688 -0.5,0.359375 -0.71875,0.546875 C 2.691406,-5.140625 2.351562,-4.800781 2.03125,-4.4375 1.707031,-4.082031 1.40625,-3.726562 1.125,-3.375 0.800781,-2.90625 0.5,-2.421875 0.21875,-1.921875 Z m 0,0"
                 id="path45" />
            </g>
          </g>
        </g>
        <g
           fill="#df1c1c"
           fill-opacity="1"
           id="g51">
          <g
             transform="translate(53.038197,50.751732)"
             id="g50">
            <g
               id="g49">
              <path
                 d="m 10.125,-6.640625 c 0.3125,-0.28125 0.671875,-0.335937 1.078125,-0.171875 0.414063,0.15625 0.710937,0.421875 0.890625,0.796875 0.175781,0.375 0.109375,0.703125 -0.203125,0.984375 -0.867187,0.710938 -1.75,1.414062 -2.65625,2.109375 -0.90625,0.699219 -1.824219,1.371094 -2.75,2.015625 -0.792969,0.5 -1.617187,1.015625 -2.46875,1.546875 -0.855469,0.539063 -1.730469,0.914063 -2.625,1.125 -0.710937,0.101563 -1.375,-0.00781 -2,-0.328125 -0.625,-0.3125 -1.132813,-0.765625 -1.53125,-1.359375 -0.394531,-0.582031 -0.59375,-1.234375 -0.59375,-1.953125 -0.03125,-1.175781 0.292969,-2.394531 0.96875,-3.65625 0.679687,-1.269531 1.304687,-2.40625 1.875,-3.40625 0.207031,-0.320312 0.488281,-0.445312 0.84375,-0.375 0.363281,0.074219 0.722656,0.257812 1.078125,0.546875 0.351562,0.28125 0.617188,0.601563 0.796875,0.953125 0.1875,0.355469 0.207031,0.65625 0.0625,0.90625 C 2.421875,-6.125 1.988281,-5.328125 1.59375,-4.515625 1.207031,-3.710938 0.851562,-2.90625 0.53125,-2.09375 0.457031,-1.875 0.367188,-1.640625 0.265625,-1.390625 c 0.75,-0.101563 1.726563,-0.441406 2.9375,-1.015625 1.21875,-0.570312 2.457031,-1.238281 3.71875,-2 1.269531,-0.769531 2.335937,-1.515625 3.203125,-2.234375 z m -4.828125,-5.5625 c -0.210937,0.429687 -0.574219,0.539063 -1.09375,0.328125 -0.523437,-0.21875 -0.980469,-0.566406 -1.375,-1.046875 -0.386719,-0.488281 -0.492187,-0.925781 -0.3125,-1.3125 0.320313,-0.644531 0.550781,-1.117187 0.6875,-1.421875 0.144531,-0.300781 0.21875,-0.453125 0.21875,-0.453125 0.21875,-0.320313 0.503906,-0.457031 0.859375,-0.40625 0.351562,0.05469 0.695312,0.226563 1.03125,0.515625 0.34375,0.28125 0.613281,0.605469 0.8125,0.96875 0.195312,0.355469 0.222656,0.671875 0.078125,0.953125 0,0 -0.054687,0.121094 -0.15625,0.359375 -0.105469,0.230469 -0.355469,0.734375 -0.75,1.515625 z m 0,0"
                 id="path48" />
            </g>
          </g>
        </g>
        <g
           fill="#df1c1c"
           fill-opacity="1"
           id="g54">
          <g
             transform="translate(61.817065,50.751732)"
             id="g53">
            <g
               id="g52">
              <path
                 d="m 6.265625,-7.0625 c 0.144531,1.386719 0.03125,2.75 -0.34375,4.09375 -0.375,1.335938 -0.996094,2.539062 -1.859375,3.609375 -0.78125,1.03125 -1.734375,1.695313 -2.859375,2 -1.125,0.3125 -2.1875,-0.085937 -3.1875,-1.1875 -0.882813,-1 -1.253906,-2.085937 -1.109375,-3.265625 0.136719,-1.1875 0.601562,-2.332031 1.390625,-3.4375 0.78125,-1.101562 1.6875,-2.09375 2.71875,-2.96875 1.03125,-0.875 1.976563,-1.523438 2.84375,-1.953125 0.351563,-0.175781 0.753906,-0.101563 1.203125,0.21875 0.445312,0.324219 0.796875,0.726563 1.046875,1.203125 0.25,0.480469 0.25,0.867188 0,1.15625 0.0625,0.179688 0.113281,0.355469 0.15625,0.53125 z M 2.625,-3.484375 c 0.320312,-0.707031 0.550781,-1.457031 0.6875,-2.25 -0.53125,0.46875 -1.011719,0.96875 -1.4375,1.5 C 1.34375,-3.554688 0.894531,-2.820312 0.53125,-2.03125 0.425781,-1.851562 0.335938,-1.675781 0.265625,-1.5 c -0.074219,0.179688 -0.148437,0.355469 -0.21875,0.53125 0,0.042969 -0.0117188,0.136719 -0.03125,0.28125 -0.01171875,0.136719 -0.03125,0.257812 -0.0625,0.359375 0.207031,-0.175781 0.410156,-0.328125 0.609375,-0.453125 0.195312,-0.125 0.382812,-0.273438 0.5625,-0.453125 0.601562,-0.675781 1.101562,-1.425781 1.5,-2.25 z m 0,0"
                 id="path51" />
            </g>
          </g>
        </g>
      </g>
    </g>
  </g>
</svg>
